<?xml version="1.0" encoding="UTF-8" standalone="no"?>
<!-- Created with Inkscape (http://www.inkscape.org/) -->

<svg
   xmlns:dc="http://purl.org/dc/elements/1.1/"
   xmlns:cc="http://creativecommons.org/ns#"
   xmlns:rdf="http://www.w3.org/1999/02/22-rdf-syntax-ns#"
   xmlns:svg="http://www.w3.org/2000/svg"
   xmlns="http://www.w3.org/2000/svg"
   xmlns:sodipodi="http://sodipodi.sourceforge.net/DTD/sodipodi-0.dtd"
   xmlns:inkscape="http://www.inkscape.org/namespaces/inkscape"
   width="512"
   height="512"
   viewBox="0 0 135.46667 135.46667"
   version="1.1"
   id="svg8"
   sodipodi:docname="icon.svg"
   inkscape:version="0.92.3 (2405546, 2018-03-11)">
  <defs
     id="defs2" />
  <sodipodi:namedview
     id="base"
     pagecolor="#ffffff"
     bordercolor="#666666"
     borderopacity="1.0"
     inkscape:pageopacity="0.0"
     inkscape:pageshadow="2"
     inkscape:zoom="0.70710678"
     inkscape:cx="153.31043"
     inkscape:cy="116.02425"
     inkscape:document-units="px"
     inkscape:current-layer="layer1"
     showgrid="false"
     inkscape:window-width="958"
     inkscape:window-height="991"
     inkscape:window-x="952"
     inkscape:window-y="0"
     inkscape:window-maximized="0"
     fit-margin-top="0"
     fit-margin-left="0"
     fit-margin-right="0"
     fit-margin-bottom="0"
     units="px" />
  <metadata
     id="metadata5">
    <rdf:RDF>
      <cc:Work
         rdf:about="">
        <dc:format>image/svg+xml</dc:format>
        <dc:type
           rdf:resource="http://purl.org/dc/dcmitype/StillImage" />
        <dc:title></dc:title>
      </cc:Work>
    </rdf:RDF>
  </metadata>
  <g
     inkscape:label="Ebene 1"
     inkscape:groupmode="layer"
     id="layer1"
     transform="translate(-59.792496,-36.322567)">
    <path
       style="opacity:1;fill:#98b131;fill-opacity:1;stroke:none;stroke-width:0.41243455;stroke-opacity:1"
       d="m 195.48347,103.94376 a 67.845482,67.845482 0 0 1 -67.84549,67.84547 67.845482,67.845482 0 0 1 -67.845485,-67.84547 67.845482,67.845482 0 0 1 67.845485,-67.84549 67.845482,67.845482 0 0 1 67.84549,67.84549 z"
       id="path6636"
       inkscape:connector-curvature="0" />
    <path
       inkscape:connector-curvature="0"
       id="path6026"
       d="m 78.738775,125.05533 c 0,0 -2.319944,0.56711 -4.330563,0.51555 -2.010617,-0.0516 -3.093259,-0.41243 -3.093259,-0.41243 l 0.515544,-1.18576 -1.649739,0.10304 1.185749,-2.31994 -2.319944,-0.56709 c 0,0 2.835489,-3.4026 6.598953,-5.77409 3.763465,-2.37151 4.382117,-2.78394 4.382117,-2.78394 0,0 -5.670974,0.25778 -7.784702,-0.10304 -2.113727,-0.36089 -4.07279,-1.18575 -4.07279,-1.18575 l 1.44352,-1.75285 -1.701293,-0.61866 0.773316,-0.77331 -1.134195,-1.08264 c 0,0 1.031086,-0.56709 3.454139,-0.61866 2.423053,-0.0516 9.692211,-4.58833 9.692211,-4.58833 l -10.362418,-8.867343 -1.649737,-1.804398 2.010617,0.206215 -1.391965,-1.082639 c 0,0 5.825637,-2.938587 8.661125,-2.887037 2.835487,0.0516 4.433671,0.36088 4.433671,0.36088 0,0 -4.691443,-1.804398 -7.372268,-3.866576 -2.680824,-2.062178 -4.639888,-3.763461 -4.639888,-3.763461 l 1.237304,-0.67021 -1.288859,-0.721759 1.804401,-0.618659 -1.391967,-1.134189 c 0,0 4.742999,-1.288853 6.702062,-1.134204 1.959064,0.154634 10.001538,0.412445 10.001538,0.412445 l 0.97953,-4.79455 c 0,0 -2.268388,-2.113728 -3.505692,-3.969691 -1.237303,-1.855948 -1.649737,-3.815011 -1.649737,-3.815011 l 0.927978,0.206215 c 0,0 -1.082642,-1.701299 -1.288858,-3.144817 -0.206218,-1.443518 -0.309327,-2.165277 -0.309327,-2.165277 l 1.598185,0.309329 -0.46399,-1.134204 2.216837,0.206215 -0.309327,-2.010613 1.59823,0.103037 -0.670251,-1.804398 c 0,0 2.835491,0.67021 2.835491,0.67021 l 3.866576,4.48522 c 0,0 -1.288869,-4.639885 -1.340418,-6.134953 -0.0516,-1.495084 -0.36088,-3.196367 -0.36088,-3.196367 l 1.959063,1.031074 -0.0516,-2.577707 1.701283,1.495068 0.36088,-2.319943 c 0,0 3.247932,1.649749 4.279021,2.732388 1.031081,1.082639 2.371491,4.021225 2.371491,4.021225 l 6.18652,1.649749 0.72176,-6.547398 0.61866,-2.938602 1.59818,1.855947 0.77331,-2.062162 1.44352,2.423042 v -2.268393 c 0,0 1.18575,2.319958 2.06218,4.021257 0.87642,1.701283 0.46397,0.824858 0.87642,1.701283 0.41243,0.876424 0.67021,1.546633 0.67021,1.546633 0,0 0.30931,-4.072791 1.49507,-6.392749 1.18575,-2.319942 3.96969,-6.031853 3.96969,-6.031853 l -0.1032,1.701298 2.31995,-1.907513 -0.0516,2.165278 c 0,0 1.44352,-0.876424 1.54663,-1.495068 0.10304,-0.61866 1.64974,2.113727 2.31995,4.02124 0.67019,1.907498 1.39197,5.000765 1.39197,5.000765 l 1.39195,12.063723 2.73239,7.578471 10.2593,-0.670194 16.96138,-2.062178 7.57848,-5.670974 c 0,0 2.42305,-1.391968 4.69144,-1.391968 2.26839,0 3.66036,-0.0516 3.66036,-0.0516 l -0.77331,1.855948 2.01061,-0.103037 c 0,0 -1.80439,2.526157 -3.14481,3.81501 -1.34041,1.288869 -2.2684,2.062178 -2.2684,2.062178 l 2.11373,0.257765 c 0,0 -1.18574,4.330571 -2.5777,5.825639 -1.39197,1.495083 -4.43368,3.866576 -4.43368,3.866576 l -5.05233,3.866576 3.55725,11.548162 13.97122,0.25778 c 0,0 3.91813,-0.25778 6.34118,0.773309 2.42306,1.031089 4.43367,2.526157 4.43367,2.526157 l -2.11372,0.30933 2.01063,1.031089 -1.64975,0.41243 1.1342,0.618659 c 0,0 -1.08264,1.54664 -2.68084,2.01062 -1.59818,0.46399 -7.7847,1.54663 -7.7847,1.54663 l 1.49509,3.6088 c 0,0 2.73237,1.08265 3.86657,1.85596 1.13419,0.77331 2.16528,2.11373 2.16528,2.11373 l -2.62927,-0.36088 2.01062,2.01061 -2.8355,-0.25776 1.85597,2.37149 -3.04171,-0.20622 3.91813,3.76346 -3.0417,0.0516 2.99015,2.93859 -3.86658,-0.61865 2.57771,2.57771 c 0,0 -3.60878,-0.15479 -5.77407,-0.82486 -2.1653,-0.67013 -6.28964,-2.06218 -6.28964,-2.06218 0,0 4.79455,2.9386 7.47538,6.03186 2.68083,3.09326 3.45414,4.33057 3.45414,4.33057 l -3.35103,-0.92799 1.95906,2.11373 -2.57772,-0.30932 1.85596,1.64973 c 0,0 -4.53678,0.87643 -7.7847,0.10304 -3.24791,-0.77331 -7.47537,-3.35101 -7.47537,-3.35101 l -0.36088,1.64973 c 0,0 2.21683,1.59818 3.86656,4.69143 1.64975,3.09327 2.88705,6.65052 2.88705,6.65052 l -2.68082,-0.82488 1.28886,2.26839 -1.95907,-0.7733 0.97953,1.90751 c 0,0 -1.75285,0.15463 -4.22746,-0.82488 -2.47461,-0.97953 -13.35256,-5.4132 -13.35256,-5.4132 0,0 3.55725,7.63003 4.33056,10.05309 0.77332,2.42306 1.95907,6.70206 1.95907,6.70206 l -2.16529,-1.7013 0.92799,2.52618 -2.26839,-0.92799 0.25776,2.01063 c 0,0 -5.31009,-3.35104 -8.66112,-7.42383 -3.35104,-4.07279 -5.92874,-9.5891 -5.92874,-9.5891 0,0 1.13419,5.05232 1.49507,8.86734 0.36088,3.81501 0.56709,7.88781 0.15463,9.64065 -0.41243,1.75285 -0.72176,2.47461 -0.72176,2.47461 l -2.01063,-2.21683 -0.82486,2.68083 c 0,0 -2.16527,-2.52616 -2.88703,-4.63989 -0.72178,-2.11373 -0.72178,-4.58833 -0.72178,-4.58833 l -9.33132,-2.31995 c 0,0 0,4.33056 -1.54663,7.63004 -1.54664,3.29947 -3.14482,4.743 -3.14482,4.743 l -1.08264,-1.39197 -0.51554,1.54662 -0.72176,-1.54662 -0.67021,1.3404 c 0,0 -2.68082,-2.73237 -3.19637,-4.69143 -0.51554,-1.95906 -0.82487,-2.52617 -0.82487,-2.52617 0,0 -0.97952,2.9386 -2.78392,5.15544 -1.80442,2.21683 -4.1759,3.81501 -4.1759,3.81501 l -0.51555,-2.62927 -1.28885,2.62927 -0.77333,-2.73237 -1.49506,1.90751 c 0,0 -0.5671,-4.22745 -0.30933,-7.26917 0.25778,-3.0417 0.61866,-9.84686 0.61866,-9.84686 l -5.052338,7.63003 c 0,0 -1.134188,2.11373 -2.216827,3.09326 -1.082639,0.97953 -1.752848,1.08265 -1.752848,1.08265 l 0.257764,-1.64975 -1.495068,0.72176 0.618644,-1.90751 -1.959063,1.18575 c 0,0 0.154634,-3.14482 1.391969,-5.51631 1.237304,-2.37149 6.392737,-12.0637 6.392737,-12.0637 0,0 -4.382124,5.10387 -5.670978,6.70206 -1.288853,1.59818 -1.495068,1.59818 -1.495068,1.59818 0,0 -1.288651,1.70139 -2.061975,2.21694 -0.773309,0.51553 -2.216828,0.87642 -2.216828,0.87642 l 0.824859,-1.2373 -1.391969,0.72176 0.56711,-1.18576 -1.391973,0.61865 c 0,0 -0.927977,-0.0516 1.391973,-4.02123 2.319943,-3.96969 8.248681,-13.09479 8.248681,-13.09479 0,0 -7.475372,5.56785 -9.27977,6.49583 -1.804404,0.92799 -6.186521,2.31994 -6.186521,2.31994 l 0.515543,-1.03107 -1.443522,0.20621 0.515543,-0.97954 -1.288858,0.36088 c 0,0 0.670206,-2.5777 1.90751,-4.63988 1.237304,-2.06218 4.588335,-5.72253 4.588335,-5.72253 z"
       style="fill:#ffdd55;fill-opacity:1;stroke:none;stroke-width:0.41243455px;stroke-linecap:butt;stroke-linejoin:miter;stroke-opacity:1" />
    <path
       inkscape:connector-curvature="0"
       id="path3741"
       d="m 129.72601,90.256118 c 0,0 1.59819,-5.413209 7.57851,-17.683131 5.98028,-12.269937 8.19713,-16.033398 11.80594,-19.33288 3.60879,-3.299481 5.05231,-4.12434 5.05231,-4.12434 l -0.20621,2.165277 2.31994,-1.237303 0.0516,2.010612 1.28885,-0.773309 c 0,0 0.77332,2.010613 0.72176,3.505697 -0.0516,1.495068 -0.46398,4.330555 -1.3404,6.959827 -0.87643,2.629272 -2.62928,7.062943 -5.72254,11.341948 -3.09325,4.279021 -14.48677,17.219152 -16.80671,19.38443 -2.31994,2.165277 -4.743,-2.216828 -4.743,-2.216828 z"
       style="fill:#f2a072;fill-opacity:1;stroke:none;stroke-width:0.41243455px;stroke-linecap:butt;stroke-linejoin:miter;stroke-opacity:1" />
    <path
       inkscape:connector-curvature="0"
       id="path3743"
       d="m 135.24234,95.153768 c 0,0 14.38366,-8.609561 19.43598,-12.630802 5.05231,-4.02124 13.76499,-12.476152 15.26007,-15.414738 1.49508,-2.938602 2.11373,-5.928754 2.11373,-5.928754 l -1.49509,1.031089 0.56711,-2.010613 -1.70128,0.979524 c 0,0 -0.30933,-0.257765 -0.20621,-0.567094 0.10303,-0.30933 0.46396,-1.134205 0.46396,-1.134205 0,0 -6.13494,2.629273 -8.66113,4.279021 -2.52615,1.649733 -7.93933,6.753613 -7.93933,6.753613 0,0 -6.85673,7.114492 -10.10468,10.413974 -3.2479,3.299466 -9.94996,12.115257 -9.94996,12.115257 z"
       style="fill:#f2a072;fill-opacity:1;stroke:none;stroke-width:0.41243455px;stroke-linecap:butt;stroke-linejoin:miter;stroke-opacity:1" />
    <path
       inkscape:connector-curvature="0"
       id="path3749"
       d="m 137.51071,100.15455 c 0,0 16.23963,-5.567876 25.51942,-8.145599 9.27977,-2.577707 13.8681,-2.835487 17.47691,-2.268377 3.60879,0.567094 4.48522,1.185738 4.48522,1.185738 l -1.18575,0.97954 1.59817,0.670209 -1.70127,1.185738 2.26838,1.185754 c 0,0 -2.42306,2.062178 -4.48522,2.835487 -2.06216,0.773309 -6.34118,2.113728 -13.30101,2.9386 -6.95985,0.82486 -28.56112,2.06216 -30.46862,2.01061 -1.90751,-0.0516 -0.20623,-2.5777 -0.20623,-2.5777 z"
       style="fill:#f2a072;fill-opacity:1;stroke:none;stroke-width:0.41243455px;stroke-linecap:butt;stroke-linejoin:miter;stroke-opacity:1" />
    <path
       inkscape:connector-curvature="0"
       id="path3751"
       d="m 137.71694,106.2895 c 0,0 19.89996,4.12436 24.90074,5.56788 5.00078,1.44351 10.62021,2.88703 13.71346,6.0834 3.09327,3.19637 2.99015,4.38212 2.99015,4.38212 l -1.90753,-0.10304 2.16528,1.85597 h -2.73236 l 2.16528,2.5777 c 0,0 -3.19638,1.80442 -7.93937,0.41245 -4.743,-1.39197 -14.84764,-5.77409 -21.29194,-9.486 -6.4443,-3.71191 -13.35256,-8.55801 -13.35256,-8.55801 z"
       style="fill:#f2a072;fill-opacity:1;stroke:none;stroke-width:0.41243455px;stroke-linecap:butt;stroke-linejoin:miter;stroke-opacity:1" />
    <path
       inkscape:connector-curvature="0"
       id="path3753"
       d="m 132.87083,111.80581 c 0,0 10.56865,18.76579 15.77562,25.98338 5.20699,7.21761 7.32072,9.69221 12.47617,13.50724 5.15541,3.81501 6.39271,4.12434 6.39271,4.12434 l -1.28885,-2.01061 2.26841,1.70128 -0.46401,-2.11373 2.11374,0.41245 c 0,0 -0.10319,-2.88706 -2.73239,-7.47539 -2.62925,-4.58832 -10.25931,-14.02277 -14.79609,-19.22975 -4.53677,-5.207 -16.18805,-17.68305 -16.18805,-17.68305 z"
       style="fill:#f2a072;fill-opacity:1;stroke:none;stroke-width:0.41243455px;stroke-linecap:butt;stroke-linejoin:miter;stroke-opacity:1" />
    <path
       inkscape:connector-curvature="0"
       id="path3757"
       d="m 103.4333,158.97802 0.15463,1.85596 c 0,0 5.98031,-3.45415 8.35181,-7.63004 2.37147,-4.1759 8.9189,-19.89997 10.41398,-30.41705 1.49509,-10.51709 1.70129,-11.44506 1.70129,-11.44506 l -2.52616,-0.82487 c 0,0 -8.97047,13.09479 -13.19792,22.16836 -4.22747,9.07356 -7.63005,14.74453 -8.09403,20.20929 -0.463992,5.46476 0.87643,7.26916 0.87643,7.26916 l 1.03107,-1.34042 0.25778,1.90751 z"
       style="fill:#f2a072;fill-opacity:1;stroke:none;stroke-width:0.41243455px;stroke-linecap:butt;stroke-linejoin:miter;stroke-opacity:1" />
    <path
       inkscape:connector-curvature="0"
       id="path3759"
       d="m 116.6312,107.32059 c 0,0 -10.77486,2.68082 -20.879502,3.35103 -10.104628,0.67021 -17.012921,1.90751 -21.137262,0 -4.12434,-1.90751 -5.928738,-4.33055 -5.928738,-4.33055 l 1.288853,-0.15464 -1.237304,-1.03109 0.979524,-0.61866 -1.340403,-0.7733 c 0,0 2.268393,-3.04171 8.300246,-3.763466 6.031854,-0.721759 16.342713,0.618646 26.498906,2.526156 10.15621,1.90751 12.68237,2.42306 12.68237,2.42306 z"
       style="fill:#f2a072;fill-opacity:1;stroke:none;stroke-width:0.41243455px;stroke-linecap:butt;stroke-linejoin:miter;stroke-opacity:1" />
    <path
       inkscape:connector-curvature="0"
       id="path3763"
       d="m 120.03381,92.936941 c 0,0 -5.92877,-10.310875 -11.39353,-17.889346 -5.46476,-7.578488 -11.805943,-13.558791 -14.3321,-15.363189 -2.526157,-1.804414 -3.247916,-2.216843 -3.247916,-2.216843 l 0.0516,1.546633 -1.185738,-0.927974 0.412429,1.752833 -1.443518,-1.237304 c 0,0 -0.721759,5.000781 3.608796,11.238849 4.330555,6.238068 24.694527,28.097105 24.694527,28.097105 z"
       style="fill:#f2a072;fill-opacity:1;stroke:none;stroke-width:0.41243455px;stroke-linecap:butt;stroke-linejoin:miter;stroke-opacity:1" />
    <path
       inkscape:connector-curvature="0"
       id="path6006"
       d="m 131.53043,90.204569 c 0,0 12.88859,-19.48753 17.2707,-24.488294 4.3821,-5.000765 8.09401,-8.867341 10.15621,-10.362424 2.06218,-1.495069 4.02124,-2.474623 4.02124,-2.474623 l -0.30933,1.855979 2.11373,-1.134205 -0.82488,2.062178 1.7013,-0.670209 c 0,0 0.10304,0.927989 -0.92797,3.454147 -1.03111,2.526157 -2.16531,6.702063 -5.05235,10.156194 -2.88702,3.454146 -11.75438,12.115272 -16.54891,16.188063 -4.79458,4.07279 -9.43447,7.423822 -9.43447,7.423822 z"
       style="fill:#ffeeaa;fill-opacity:1;stroke:none;stroke-width:0.41243455px;stroke-linecap:butt;stroke-linejoin:miter;stroke-opacity:1" />
    <path
       inkscape:connector-curvature="0"
       id="path6008"
       d="m 134.93301,95.411563 c 0,0 19.07511,-9.382885 26.85981,-11.651277 7.78469,-2.268393 8.2487,-2.835487 12.47614,-3.196367 4.22746,-0.360879 5.25853,-0.206214 5.25853,-0.206214 l -1.18572,0.979523 1.64973,-0.0516 -1.18575,1.185754 1.70129,0.206214 c 0,0 -1.75284,5.619424 -7.57848,8.609576 -5.82566,2.990137 -20.57017,6.650498 -25.93185,7.423822 -5.36162,0.773309 -10.10462,1.288854 -10.10462,1.288854 z"
       style="fill:#ffeeaa;fill-opacity:1;stroke:none;stroke-width:0.41243455px;stroke-linecap:butt;stroke-linejoin:miter;stroke-opacity:1" />
    <path
       inkscape:connector-curvature="0"
       id="path6010"
       d="m 136.94365,104.89756 c 0,0 11.3935,3.19637 18.61111,4.48522 7.21759,1.28886 10.46552,2.21683 19.84841,2.62928 9.38286,0.41243 9.53755,-2.83549 9.53755,-2.83549 l -1.23731,-0.87643 1.54663,-0.51554 -1.54663,-0.97954 1.59818,-0.51554 c 0,0 -3.09326,-2.99014 -9.022,-4.17589 -5.92874,-1.18576 -18.19868,-2.371511 -26.44739,-1.95907 -8.24866,0.41243 -13.30101,0.87643 -13.30101,0.87643 z"
       style="fill:#ffeeaa;fill-opacity:1;stroke:none;stroke-width:0.41243455px;stroke-linecap:butt;stroke-linejoin:miter;stroke-opacity:1" />
    <path
       inkscape:connector-curvature="0"
       id="path6012"
       d="m 134.57213,110.77475 c 0,0 6.85673,9.02201 13.86813,15.05386 7.01138,6.03185 11.80593,9.89843 15.67251,10.77485 3.86657,0.87643 5.92875,0.20622 5.92875,0.20622 l -0.77334,-1.39197 1.54663,0.15463 -1.13417,-1.28885 1.80438,-0.46399 c 0,0 -0.41243,-3.19637 -4.69145,-7.68159 -4.279,-4.48524 -11.75437,-8.91891 -20.05462,-12.68237 -8.30023,-3.76346 -11.13573,-5.00076 -11.13573,-5.00076 z"
       style="fill:#ffeeaa;fill-opacity:1;stroke:none;stroke-width:0.41243455px;stroke-linecap:butt;stroke-linejoin:miter;stroke-opacity:1" />
    <path
       inkscape:connector-curvature="0"
       id="path6014"
       d="m 126.52963,111.34183 c 0,0 -2.26838,14.28055 -1.59818,25.21007 0.67021,10.92952 0.77334,20.10619 3.19636,25.00384 2.42306,4.89766 4.17593,6.70206 4.17593,6.70206 l 1.13418,-1.8044 0.72176,1.8044 0.82488,-2.01061 0.87641,1.95906 c 0,0 4.279,-8.3518 3.81504,-16.29116 -0.46401,-7.93937 -3.04172,-20.36396 -4.89767,-27.53001 -1.85596,-7.16606 -3.86659,-13.30101 -3.86659,-13.30101 z"
       style="fill:#ffeeaa;fill-opacity:1;stroke:none;stroke-width:0.41243455px;stroke-linecap:butt;stroke-linejoin:miter;stroke-opacity:1" />
    <path
       inkscape:connector-curvature="0"
       id="path6016"
       d="m 119.93071,111.80584 c 0,0 -3.55729,9.38289 -8.97045,15.98183 -5.41323,6.59895 -16.08497,19.28132 -17.992483,20.72484 -1.907513,1.44352 -3.144817,1.85596 -3.144817,1.85596 l 0.36088,-1.28887 -1.134189,0.61866 0.36088,-1.34042 -1.443519,0.61866 c 0,0 -0.515544,-2.68082 2.371493,-9.17667 2.887036,-6.49585 10.001525,-15.36319 12.527705,-18.19867 2.52615,-2.83549 -3.351035,4.43367 -7.269161,7.06294 -3.918126,2.62927 -6.186518,4.38212 -8.91889,5.15543 -2.732388,0.77332 -5.567875,1.18575 -5.567875,1.18575 l 0.773325,-1.44352 -2.062178,0.51555 0.773309,-1.75285 -1.701283,0.67019 c 0,0 -0.721759,-3.35101 1.804398,-6.44428 2.526157,-3.09325 7.887801,-6.95983 13.352561,-9.38288 5.464759,-2.42306 21.549714,-8.71268 21.549714,-8.71268 l 2.47462,0.20621 z"
       style="fill:#ffeeaa;fill-opacity:1;stroke:none;stroke-width:0.41243455px;stroke-linecap:butt;stroke-linejoin:miter;stroke-opacity:1" />
    <path
       inkscape:connector-curvature="0"
       id="path6018"
       d="m 114.10504,104.89756 c 0,0 -19.48753,2.73238 -29.231295,1.44352 -9.743764,-1.28887 -18.971985,-5.36166 -18.971985,-5.36166 l 1.495084,-0.979521 -1.546633,-0.824875 1.288853,-0.567094 -1.237304,-1.185754 c 0,0 5.51631,-3.196366 12.527702,-3.660346 7.011393,-0.463994 27.220678,4.072791 30.417048,5.000765 3.19637,0.927974 5.82564,2.113725 5.82564,2.113725 z"
       style="fill:#ffeeaa;fill-opacity:1;stroke:none;stroke-width:0.41243455px;stroke-linecap:butt;stroke-linejoin:miter;stroke-opacity:1" />
    <path
       inkscape:connector-curvature="0"
       id="path6020"
       d="m 117.19836,97.937705 c 0,0 -28.097112,-10.413974 -33.613406,-15.311639 -5.516309,-4.897649 -8.042482,-10.156194 -8.042482,-10.156194 l 2.113728,0.515545 -1.804398,-1.907514 2.319943,0.41243 -1.288854,-1.804398 c 0,0 7.166042,0 14.02277,3.196366 6.856712,3.196367 28.612689,21.446608 28.612689,21.446608 z"
       style="fill:#ffeeaa;fill-opacity:1;stroke:none;stroke-width:0.41243455px;stroke-linecap:butt;stroke-linejoin:miter;stroke-opacity:1" />
    <path
       inkscape:connector-curvature="0"
       id="path6022"
       d="m 120.85872,92.060532 c 0,0 -10.31089,-16.909807 -13.19793,-23.972749 -2.88704,-7.062943 -4.27901,-10.20776 -4.48524,-12.269938 -0.20621,-2.062178 1.1342,-6.083419 1.1342,-6.083419 l 1.08264,1.031089 v -1.752848 l 1.49507,1.134189 0.20623,-2.010613 c 0,0 3.14481,1.546634 5.8772,5.877204 2.73237,4.330571 6.70207,18.817336 7.5785,21.755922 0.87641,2.938602 4.17587,14.744545 4.17587,14.744545 z"
       style="fill:#ffeeaa;fill-opacity:1;stroke:none;stroke-width:0.41243455px;stroke-linecap:butt;stroke-linejoin:miter;stroke-opacity:1" />
    <path
       inkscape:connector-curvature="0"
       id="path6024"
       d="m 131.53043,90.204569 c 0,0 7.7847,-22.013687 8.9189,-27.839326 1.13421,-5.825638 1.54662,-9.949994 1.39197,-13.610356 -0.15463,-3.660361 -0.87642,-5.877188 -0.87642,-5.877188 l -0.72178,1.649733 -0.82484,-2.165278 -1.13422,1.804398 -0.20622,-2.268393 c 0,0 -3.40258,1.598184 -4.58832,4.330571 -1.18575,2.732372 -3.96967,12.115273 -4.74301,19.075116 -0.77329,6.959827 -2.37148,24.385194 -2.37148,24.385194 z"
       style="fill:#ffeeaa;fill-opacity:1;stroke:none;stroke-width:0.41243455px;stroke-linecap:butt;stroke-linejoin:miter;stroke-opacity:1" />
    <path
       inkscape:connector-curvature="0"
       id="path6103"
       d="m 114.44207,109.46097 c 2.64421,0.71465 2.85861,1.28638 2.85861,1.28638 0,0 0.0716,1.92955 0.85758,2.35835 0.78612,0.42878 7.50383,4.43083 8.36141,4.14498 0.85759,-0.28587 5.35988,-3.7162 6.57479,-3.7162 1.21492,0 3.14447,0 3.64472,-0.35732 0.50026,-0.35731 0.4288,-1.50076 1.07198,-2.42981 0.64318,-0.92905 1.6437,-1.71516 1.6437,-2.42981 0,-0.71465 0.50025,-2.6442 0.71465,-3.00153 0.2144,-0.35733 -0.2144,-0.92905 -0.50025,-1.00052 -0.28587,-0.0714 -1.07198,0 -1.14345,-0.28585 -0.0716,-0.28587 0.28587,-0.57173 0.57172,-1.07198 0.28586,-0.50025 0.42879,-1.07198 -0.14294,-1.6437 -0.57172,-0.57173 -1.28637,-2.286882 -1.28637,-2.930062 0,-0.643195 -0.78613,-1.286375 -0.78613,-1.286375 0,0 0.50026,-1.572244 0.2144,-2.001026 -0.28585,-0.428797 -1.28637,-1.6437 -1.28637,-1.6437 0,0 0.28587,-0.92905 -0.0716,-1.357831 -0.35733,-0.428797 -1.57223,-1.000521 -1.57223,-1.000521 0,0 -0.64318,-1.071961 -1.2149,-1.071961 -0.57173,0 -2.28688,-0.357325 -3.07301,-0.786122 -0.7861,-0.428797 -1.2149,-0.786122 -2.57273,-0.571724 -1.35783,0.214398 -2.42982,-0.500253 -2.78715,0.07139 -0.35733,0.571724 -0.42878,1.786628 -1.28636,2.143954 -0.85758,0.357325 -1.50077,-0.214399 -2.28689,0.500252 -0.78611,0.714651 -1.21491,1.643701 -2.14394,1.858099 -0.92905,0.214383 -1.8581,0.285854 -2.5013,1.357831 -0.64318,1.071976 -0.28585,1.929554 -1.21488,2.572734 -0.92907,0.643195 -1.2864,1.786628 -1.35785,2.429823 -0.0716,0.643179 0.2144,2.143959 0.2144,3.644709 0,1.50078 -0.6432,2.57275 -0.6432,3.35886 0,0.78612 1.14345,2.85861 1.14345,2.85861 z"
       style="fill:#8c4a33;fill-opacity:1;stroke:none;stroke-width:0.41243455px;stroke-linecap:butt;stroke-linejoin:miter;stroke-opacity:1" />
    <path
       inkscape:connector-curvature="0"
       id="path6105"
       d="m 117.08628,100.38491 0.92905,-1.786629 c 0,0 -0.57173,-0.714651 -0.92905,-0.64318 -0.35733,0.07155 -0.85758,0.07155 -0.85758,0.64318 0,0.571724 -0.78611,1.071977 -0.14294,1.429299 0.64318,0.35733 1.0005,0.35733 1.0005,0.35733 z"
       style="fill:#ffeeaa;stroke:none;stroke-width:0.41243455px;stroke-linecap:butt;stroke-linejoin:miter;stroke-opacity:1" />
    <path
       inkscape:connector-curvature="0"
       id="path6107"
       d="m 120.73101,100.09905 c 0.64318,0 1.35783,-0.214394 1.4293,-0.500248 0.0714,-0.28587 0.0714,-0.92905 0.0714,-0.92905 0,0 -0.4288,-0.142942 -0.85758,-0.142942 -0.42879,0 -0.78612,0.142942 -0.78612,0.571708 0,0.428797 0.14294,1.000522 0.14294,1.000522 z"
       style="fill:#ffeeaa;stroke:none;stroke-width:0.41243455px;stroke-linecap:butt;stroke-linejoin:miter;stroke-opacity:1" />
    <path
       inkscape:connector-curvature="0"
       id="path6109"
       d="m 121.58858,96.740198 c 0.57173,0 1.21491,-0.428797 1.21491,-0.786123 0,-0.357325 0.0716,-0.285854 -0.35733,-0.500252 -0.42878,-0.214399 -0.71465,-0.500253 -1.0005,-0.07155 -0.28587,0.428797 -0.50026,0.571724 -0.50026,0.857579 0,0.285869 0.64318,0.500268 0.64318,0.500268 z"
       style="fill:#ffeeaa;stroke:none;stroke-width:0.41243455px;stroke-linecap:butt;stroke-linejoin:miter;stroke-opacity:1" />
    <path
       inkscape:connector-curvature="0"
       id="path6111"
       d="m 126.23382,94.95357 c 0.71465,-0.07155 1.07197,-0.571724 1.14344,-0.929049 0.0714,-0.357326 -0.0716,-0.428797 -0.35732,-0.64318 -0.28587,-0.214398 -0.6432,-0.428797 -0.92905,-0.07155 -0.28587,0.357325 -0.4288,1.000505 -0.4288,1.000505 z"
       style="fill:#ffeeaa;stroke:none;stroke-width:0.41243455px;stroke-linecap:butt;stroke-linejoin:miter;stroke-opacity:1" />
    <path
       inkscape:connector-curvature="0"
       id="path6113"
       d="m 127.09139,92.094966 c 0.57173,-0.500253 0.92905,-1.214904 0.92905,-1.214904 0,0 -0.0714,-0.428796 -0.57172,-0.428796 -0.50025,0 -1.07198,0.142942 -1.14343,0.500252 -0.0716,0.357326 -0.6432,0.428797 -0.35733,0.92905 0.28586,0.500252 0.57171,0.571724 0.57171,0.571724 z"
       style="fill:#ffeeaa;stroke:none;stroke-width:0.41243455px;stroke-linecap:butt;stroke-linejoin:miter;stroke-opacity:1" />
    <path
       inkscape:connector-curvature="0"
       id="path6115"
       d="m 129.80707,93.810122 c 0.50025,0.714651 1.00051,0.857578 1.4293,0.714651 0.4288,-0.142942 0.50026,-0.571724 0.57173,-0.786106 0.0716,-0.214399 0.64318,-0.571724 0,-0.857594 -0.6432,-0.285854 -0.6432,-0.357326 -1.00052,-0.357326 -0.35733,0 -0.78611,0.500269 -0.78611,0.500269 z"
       style="fill:#ffeeaa;stroke:none;stroke-width:0.41243455px;stroke-linecap:butt;stroke-linejoin:miter;stroke-opacity:1" />
    <path
       inkscape:connector-curvature="0"
       id="path6117"
       d="m 134.16643,96.525799 c 0.50027,0.285854 0.78612,0.500253 1.00052,0.07155 0.2144,-0.428797 0.64318,-1.286375 0.64318,-1.286375 0,0 -0.14294,-0.571724 -0.64318,-0.571724 -0.50025,0 -0.85757,0.07155 -0.92905,0.428797 -0.0716,0.357309 -0.0716,1.35783 -0.0716,1.35783 z"
       style="fill:#ffeeaa;stroke:none;stroke-width:0.41243455px;stroke-linecap:butt;stroke-linejoin:miter;stroke-opacity:1" />
    <path
       inkscape:connector-curvature="0"
       id="path6119"
       d="m 131.5937,99.170005 c 0.64318,-0.142943 1.07197,-1.000505 1.07197,-1.000505 l -0.14294,-0.643196 c 0,0 -0.64318,-0.285854 -1.2149,-0.285854 -0.57173,0 -1.14345,0.285854 -1.14345,0.786123 0,0.500252 0.35733,1.071961 0.71465,1.143432 0.35733,0.07155 0.71465,0 0.71465,0 z"
       style="fill:#ffeeaa;stroke:none;stroke-width:0.41243455px;stroke-linecap:butt;stroke-linejoin:miter;stroke-opacity:1" />
    <path
       inkscape:connector-curvature="0"
       id="path6121"
       d="m 134.80963,100.74223 c 0.64318,-0.21439 1.07197,-0.929045 1.07197,-0.929045 l -0.21439,-0.857578 c 0,0 -0.64318,-0.64318 -1.00051,-0.285855 -0.35732,0.357326 -0.50027,0.285855 -0.35732,0.92905 0.14294,0.643178 0.50025,1.143428 0.50025,1.143428 z"
       style="fill:#ffeeaa;stroke:none;stroke-width:0.41243455px;stroke-linecap:butt;stroke-linejoin:miter;stroke-opacity:1" />
    <path
       inkscape:connector-curvature="0"
       id="path6123"
       d="m 135.38135,103.31498 c -0.35732,0.28586 -0.71465,0.14295 -0.50025,0.71466 0.21438,0.57172 0.14294,0.64317 0.57171,0.64317 0.42879,0 0.50025,0.6432 0.78612,-0.0714 0.28585,-0.71467 0.28585,-1.28637 0.28585,-1.28637 z"
       style="fill:#ffeeaa;stroke:none;stroke-width:0.41243455px;stroke-linecap:butt;stroke-linejoin:miter;stroke-opacity:1" />
    <path
       inkscape:connector-curvature="0"
       id="path6125"
       d="m 131.73663,106.95969 c 0.42879,0 0.92904,-0.0714 1.14344,-0.50025 0.21439,-0.42878 0.21439,-1.50076 0.21439,-1.50076 0,0 -0.50026,-0.35732 -0.92904,-0.14294 -0.42879,0.2144 -0.71465,0.6432 -0.92905,1.07198 -0.2144,0.4288 0.50026,1.07197 0.50026,1.07197 z"
       style="fill:#ffeeaa;stroke:none;stroke-width:0.41243455px;stroke-linecap:butt;stroke-linejoin:miter;stroke-opacity:1" />
    <path
       inkscape:connector-curvature="0"
       id="path6127"
       d="m 137.52529,107.31702 c 0,0 0.71467,0.57172 0.85759,0.2144 0.14295,-0.35733 0.14295,-0.57173 0.14295,-0.85758 0,-0.28585 -0.35733,-0.78612 -0.35733,-0.78612 l -0.4288,-0.14294 -0.50025,0.14294 -0.28587,0.35732 v 0.4288 l 0.2144,0.78611 z"
       style="fill:#ffeeaa;stroke:none;stroke-width:0.41243455px;stroke-linecap:butt;stroke-linejoin:miter;stroke-opacity:1" />
    <path
       inkscape:connector-curvature="0"
       id="path6129"
       d="m 133.73765,111.0332 c 0.42878,0.28587 0.71465,0.8576 1.4293,0.14295 0.71465,-0.71466 0.71465,-1.07198 0.71465,-1.07198 0,0 -0.14294,-0.28587 -0.57172,-0.35733 -0.42878,-0.0716 -0.64318,-0.28587 -0.92905,0 -0.28585,0.28586 -0.35732,0.71465 -0.35732,0.71465 z"
       style="fill:#ffeeaa;stroke:none;stroke-width:0.41243455px;stroke-linecap:butt;stroke-linejoin:miter;stroke-opacity:1" />
    <path
       inkscape:connector-curvature="0"
       id="path6131"
       d="m 130.95052,112.31958 0.85758,0.2144 c 0,0 -0.78613,0.0716 0.5717,-0.71466 1.35785,-0.78612 0.50027,-1.35783 -0.21438,-1.35783 -0.71465,0 -1.57223,0.50026 -1.57223,0.78611 0,0.28587 0.35733,1.07198 0.35733,1.07198 z"
       style="fill:#ffeeaa;stroke:none;stroke-width:0.41243455px;stroke-linecap:butt;stroke-linejoin:miter;stroke-opacity:1" />
    <path
       inkscape:connector-curvature="0"
       id="path6133"
       d="m 128.37777,114.7494 c 0,0 0.28585,0.71464 0.85758,0.28585 0.57172,-0.42879 1.35784,-0.78612 0.78612,-1.14344 -0.57172,-0.35733 -1.07198,-0.42878 -1.28638,-0.0714 -0.21439,0.35733 -0.35732,0.92905 -0.35732,0.92905 z"
       style="fill:#ffeeaa;stroke:none;stroke-width:0.41243455px;stroke-linecap:butt;stroke-linejoin:miter;stroke-opacity:1" />
    <path
       inkscape:connector-curvature="0"
       id="path6135"
       d="m 124.94744,114.96378 c 0.50025,0.28587 0.92905,0.85758 1.35785,0.6432 0.42878,-0.2144 0.57171,-1.28638 0.57171,-1.28638 0,0 -0.35733,-0.57172 -0.78611,-0.57172 -0.4288,0 -0.8576,0.50025 -0.8576,0.50025 z"
       style="fill:#ffeeaa;stroke:none;stroke-width:0.41243455px;stroke-linecap:butt;stroke-linejoin:miter;stroke-opacity:1" />
    <path
       inkscape:connector-curvature="0"
       id="path6137"
       d="m 126.37674,112.03372 c 0,0 1.07198,0 1.35785,-0.64319 0.28585,-0.64318 0.14294,-1.21491 -0.2144,-1.21491 -0.35733,0 -1.14345,0.0716 -1.35785,0.35733 -0.21438,0.28587 -0.35732,0.92905 -0.35732,0.92905 z"
       style="fill:#ffeeaa;stroke:none;stroke-width:0.41243455px;stroke-linecap:butt;stroke-linejoin:miter;stroke-opacity:1" />
    <path
       inkscape:connector-curvature="0"
       id="path6139"
       d="m 122.16031,113.60595 c 0.64318,0.2144 0.2144,0.2144 0.78612,0.28586 0.57171,0.0715 1.14343,-0.92904 1.14343,-0.92904 l -0.78612,-0.85759 -0.92903,0.57172 z"
       style="fill:#ffeeaa;stroke:none;stroke-width:0.41243455px;stroke-linecap:butt;stroke-linejoin:miter;stroke-opacity:1" />
    <path
       inkscape:connector-curvature="0"
       id="path6141"
       d="m 119.65903,110.46149 c 0,0 0.28585,0.85758 0.78612,0.50026 0.50025,-0.35733 0.71464,-0.71465 0.71464,-0.71465 0,0 0.0716,-0.28587 0.0716,-0.92905 0,-0.64318 0.0714,-1.07198 -0.21439,-1.07198 -0.28587,0 -1.00052,-0.14294 -1.00052,0.2144 0,0.35732 -0.0714,0.78612 -0.0714,1.14345 0,0.35731 -0.28585,0.85757 -0.28585,0.85757 z"
       style="fill:#ffeeaa;stroke:none;stroke-width:0.41243455px;stroke-linecap:butt;stroke-linejoin:miter;stroke-opacity:1" />
    <path
       inkscape:connector-curvature="0"
       id="path6143"
       d="m 115.87138,105.74479 0.50025,0.28587 0.78612,-0.0716 0.42878,-0.71465 c 0,0 0,-0.35732 -0.28585,-0.57172 -0.28587,-0.2144 -0.71465,-0.57173 -0.71465,-0.57173 l -0.35733,-0.2144 -0.78611,0.50035 c 0,0 0.0714,0.50025 0.0714,0.78612 0,0.28586 0.35731,0.57171 0.35731,0.57171 z"
       style="fill:#ffeeaa;stroke:none;stroke-width:0.41243455px;stroke-linecap:butt;stroke-linejoin:miter;stroke-opacity:1" />
  </g>
</svg>
