<?xml version="1.0" encoding="UTF-8" standalone="no"?>
<!-- Created with Inkscape (http://www.inkscape.org/) -->

<svg
   xmlns:dc="http://purl.org/dc/elements/1.1/"
   xmlns:cc="http://creativecommons.org/ns#"
   xmlns:rdf="http://www.w3.org/1999/02/22-rdf-syntax-ns#"
   xmlns:svg="http://www.w3.org/2000/svg"
   xmlns="http://www.w3.org/2000/svg"
   xmlns:sodipodi="http://sodipodi.sourceforge.net/DTD/sodipodi-0.dtd"
   xmlns:inkscape="http://www.inkscape.org/namespaces/inkscape"
   width="512"
   height="512"
   viewBox="0 0 135.46667 135.46667"
   version="1.1"
   id="svg8"
   sodipodi:docname="icon_white.svg"
   inkscape:version="0.92.3 (2405546, 2018-03-11)"
   inkscape:export-filename="C:\Users\mandy\AndroidStudioProjects\PlantsEncyclopedia\Phytokon_app\app\src\img\ic_phytokon.png"
   inkscape:export-xdpi="95.841316"
   inkscape:export-ydpi="95.841316">
  <defs
     id="defs2" />
  <sodipodi:namedview
     id="base"
     pagecolor="#ffffff"
     bordercolor="#666666"
     borderopacity="1.0"
     inkscape:pageopacity="0.0"
     inkscape:pageshadow="2"
     inkscape:zoom="2"
     inkscape:cx="243.01309"
     inkscape:cy="46.591727"
     inkscape:document-units="px"
     inkscape:current-layer="layer1"
     showgrid="false"
     inkscape:window-width="1920"
     inkscape:window-height="1001"
     inkscape:window-x="-9"
     inkscape:window-y="-9"
     inkscape:window-maximized="1"
     fit-margin-top="0"
     fit-margin-left="0"
     fit-margin-right="0"
     fit-margin-bottom="0"
     units="px" />
  <metadata
     id="metadata5">
    <rdf:RDF>
      <cc:Work
         rdf:about="">
        <dc:format>image/svg+xml</dc:format>
        <dc:type
           rdf:resource="http://purl.org/dc/dcmitype/StillImage" />
        <dc:title></dc:title>
      </cc:Work>
    </rdf:RDF>
  </metadata>
  <g
     inkscape:label="Ebene 1"
     inkscape:groupmode="layer"
     id="layer1"
     transform="translate(-59.792496,-36.322567)">
    <path
       style="fill:#ffffff;fill-opacity:1;stroke:none;stroke-width:0.44079429px;stroke-linecap:butt;stroke-linejoin:miter;stroke-opacity:1"
       d="m 123.52407,36.252287 -2.47983,2.038532 0.11047,-1.818165 c 0,0 -2.97548,3.967509 -4.24276,6.446974 -1.2673,2.479482 -1.5978,6.831926 -1.5978,6.831926 0,0 -0.27554,-0.71634 -0.71633,-1.653028 -0.4408,-0.93669 0,1.01e-4 -0.93669,-1.818165 -0.93669,-1.818284 -2.20367,-4.297431 -2.20367,-4.297431 v 2.424036 l -1.54312,-2.589725 -0.82624,2.204222 -1.70825,-1.983855 -0.64233,3.051999 c -1.26855,-1.063133 -2.16777,-1.508879 -2.16777,-1.508879 l -0.22037,2.148992 -1.5978,-1.212294 v 1.873395 l -1.15706,-1.101835 c 0,0 -1.03711,3.117069 -1.20843,5.403683 l -1.050475,-0.280014 c 0,0 -1.432514,-3.140348 -2.534495,-4.297432 -1.101985,-1.157082 -4.573576,-2.920551 -4.573576,-2.920551 l -0.385507,2.479818 -1.818164,-1.597798 0.05467,2.754862 -2.093762,-1.101834 c 0,0 0.330908,1.818074 0.386055,3.415963 0.04328,1.255249 0.880541,4.50081 1.247091,5.870927 -0.40128,-0.279798 -0.724884,-0.502647 -0.998556,-0.687612 l -2.948718,-3.42038 -3.030458,-0.71633 0.716328,1.928623 -1.707705,-0.109906 0.330275,2.148991 -2.369359,-0.220919 0.495965,1.212293 -1.707706,-0.330273 0.330275,2.314128 c 0.220396,1.542777 1.377431,3.360733 1.377431,3.360733 l -0.99192,-0.220368 c 0,0 0.441106,2.094045 1.763488,4.077618 1.322383,1.983582 3.746788,4.242751 3.746788,4.242751 l -0.06518,0.31923 C 78.1689,66.612935 72.281854,66.612106 72.281854,66.612106 l 1.377431,1.928625 -2.479265,-0.440733 1.928072,2.03853 -2.258899,-0.551193 c 0,0 0.734006,1.519109 2.25669,3.70592 -0.06219,-0.0044 -0.164312,-0.0096 -0.218158,-0.01381 -2.093772,-0.165283 -7.162753,1.211743 -7.162753,1.211743 l 1.487891,1.212294 -1.928624,0.661102 1.37743,0.771557 -1.3222,0.716333 c 0,0 2.093369,1.818408 4.958531,4.022386 2.865163,2.203974 7.879634,4.132293 7.879634,4.132293 0,0 -1.708256,-0.330357 -4.738715,-0.385503 -3.030462,-0.05509 -9.256515,3.085134 -9.256515,3.085134 l 1.487339,1.157065 -2.148992,-0.220368 1.763488,1.928624 2.219685,1.899905 c -4.173775,1.170188 -6.958402,2.783581 -6.958402,2.783581 l 1.322202,1.267527 -1.377431,0.605869 1.653027,0.881466 -1.597798,1.047157 c 0,0 1.586366,0.6965 4.13395,1.61658 -1.033578,0.75133 -1.488996,1.35865 -1.488996,1.35865 l 1.432661,0.82624 -1.047156,0.66165 1.322201,1.10184 -1.377431,0.16513 c 0,0 0.11377,0.14628 0.317019,0.37447 -1.047849,0.19472 -1.52876,0.45233 -1.52876,0.45233 l 1.211741,1.15706 -0.826237,0.82624 1.818164,0.6611 -1.542568,1.87339 c 0,0 2.093589,0.88183 4.35266,1.26753 2.259072,0.38562 8.319816,0.10991 8.319816,0.10991 0,0 -0.661238,0.44064 -4.683486,2.97522 -4.022246,2.53456 -7.052292,6.17139 -7.052292,6.17139 l 2.479265,0.60586 -1.266971,2.47982 1.762934,-0.11046 -0.551193,1.26753 c 0,0 1.157185,0.38558 3.306056,0.44073 2.148873,0.0552 4.628257,-0.55118 4.628257,-0.55118 l 2.373776,1.27248 c -0.09356,0.10857 -0.192695,0.21838 -0.280014,0.32531 -2.699861,3.30597 -1.928074,6.8877 -1.928074,6.8877 l 1.818166,-0.71633 -0.82679,1.8734 2.204221,-0.5512 -0.826791,1.54312 c 0,0 0.919354,-0.13616 2.216925,-0.39047 -0.190069,0.2733 -0.364645,0.53594 -0.508666,0.77597 -1.322384,2.20399 -2.038532,4.95909 -2.038532,4.95909 l 1.377431,-0.38551 -0.551193,1.04662 1.543119,-0.22038 -0.551192,1.10184 c 0,0 4.683633,-1.48746 6.612109,-2.47927 0.598772,-0.30794 1.801296,-1.11262 3.148101,-2.05013 -0.521949,0.95082 -0.991021,1.87964 -1.385165,2.76646 -3.085555,6.94252 -2.534494,9.80771 -2.534494,9.80771 l 0.280014,-0.11984 c -0.24314,0.91945 0.105486,0.94608 0.105486,0.94608 l 0.859375,-0.38164 -0.08782,0.32642 0.577152,-0.31482 -0.466691,0.97646 0.855509,-0.44405 -0.139731,0.49873 c 0,0 0.110843,-0.0387 0.301002,-0.1204 l -0.410909,0.61636 c 0,0 1.542875,-0.38572 2.369357,-0.9367 0.826499,-0.55099 2.203669,-2.36935 2.203669,-2.36935 0,0 0.220322,3.7e-4 1.597798,-1.7077 0.580173,-0.71942 1.75445,-2.10998 2.91061,-3.4712 0.973538,-1.11386 2.016763,-2.32513 3.09066,-3.57999 -0.11028,0.20733 -5.463938,10.27257 -6.772829,12.78128 -1.322416,2.53456 -1.48734,5.89578 -1.48734,5.89578 l 2.093763,-1.26753 -0.6611,2.03854 1.597797,-0.77101 -0.275597,1.76294 c 0,0 0.716313,-0.11018 1.873395,-1.15707 1.157082,-1.04689 2.369359,-3.30606 2.369359,-3.30606 l 0.250742,-0.37833 c -0.189826,4.80049 1.016782,6.43925 1.016782,6.43925 l 1.101833,-1.43266 0.275595,2.03909 1.101836,-1.8734 0.16513,1.98329 c 0,0 0.33202,-0.19747 0.81133,-0.50313 0.11072,2.10913 0.34575,3.86442 0.34575,3.86442 l 1.59778,-2.03853 0.82679,2.92001 1.37744,-2.8101 0.55065,2.8101 c 0,0 2.53462,-1.70781 4.46311,-4.07708 1.92847,-2.36927 2.97523,-5.51027 2.97523,-5.51027 0,0 0.33104,0.60641 0.88202,2.70019 0.55101,2.09376 3.41596,5.01376 3.41596,5.01376 l 0.71634,-1.43267 0.77156,1.65304 0.55064,-1.65304 1.15705,1.4879 c 0,0 1.70831,-1.54265 3.36129,-5.06899 0.30781,-0.65668 0.55833,-1.35182 0.76217,-2.04793 0.40499,2.14033 0.93284,3.98917 1.66242,5.46389 2.58967,5.23443 4.46313,7.16276 4.46313,7.16276 l 1.21229,-1.92809 0.771,1.92809 0.88203,-2.149 0.93613,2.09376 c 0,0 1.89472,-3.70146 3.11276,-8.60149 0.83795,1.27635 1.68119,2.26553 1.68119,2.26553 l 0.88147,-2.86532 2.14899,2.36936 c 0,0 0.33021,-0.77158 0.771,-2.64496 0.44083,-1.87337 0.22056,-6.22633 -0.16513,-10.30366 -0.3857,-4.07735 -1.5978,-9.47689 -1.5978,-9.47689 0,0 2.75506,5.89559 6.33652,10.24844 3.58145,4.35285 9.25651,7.93431 9.25651,7.93431 l -0.2756,-2.14899 2.4246,0.99192 -0.99193,-2.70018 2.31412,1.81871 c 0,0 -1.26726,-4.57362 -2.09377,-7.16329 -0.0427,-0.13392 -0.098,-0.2911 -0.15574,-0.45288 1.00064,0.86268 2.08846,1.72215 3.3519,2.6571 5.5099,4.07733 6.83192,4.40789 6.83192,4.40789 l -1.37744,-2.14899 2.4246,1.81816 -0.49596,-2.25889 2.25889,0.44073 c 0,0 -0.11,-3.08516 -2.91999,-7.98899 -0.30244,-0.52779 -0.67752,-1.12559 -1.093,-1.76128 0.22382,0.0895 0.65588,0.26468 0.81739,0.32861 2.64477,1.04687 4.51781,0.88147 4.51781,0.88147 l -1.04661,-2.03853 2.09376,0.82624 -1.37743,-2.42458 2.86477,0.88201 c 0,0 -1.32195,-3.80211 -3.08514,-7.10807 -0.12856,-0.24106 -0.26103,-0.47076 -0.39488,-0.6948 l 0.33966,0.0337 -1.21176,-1.37743 1.92809,-0.49596 c 0,0 -0.11092,-0.8575 -0.79587,-2.31523 1.38579,0.66044 2.96224,1.31728 4.37696,1.65412 3.47126,0.82657 8.32037,-0.11045 8.32037,-0.11045 l -1.98385,-1.76293 2.75486,0.33082 -2.09376,-2.25944 3.58165,0.99193 c 0,0 -0.82639,-1.32231 -3.69156,-4.62827 -0.68915,-0.79518 -1.50995,-1.57948 -2.35776,-2.31413 h 0.53959 l -2.31411,-1.98386 2.03852,0.11046 c 0,0 4.7e-4,-0.11548 -0.0618,-0.33855 0.29525,0.094 0.63454,0.20486 0.88808,0.28333 2.31418,0.71614 6.17138,0.88146 6.17138,0.88146 l -2.75485,-2.75485 4.13228,0.6611 -3.19559,-3.14037 3.25082,-0.0553 -4.18751,-4.02239 3.25081,0.22038 -1.98386,-2.53451 3.03047,0.27561 -2.14843,-2.14899 2.80953,0.38606 c 0,0 -1.10195,-1.43298 -2.31412,-2.25946 -0.33858,-0.23083 -0.81303,-0.4862 -1.31724,-0.7362 l 0.76659,-0.25572 -1.65302,-1.04661 1.70826,-0.55119 c 0,0 -1.76677,-1.69817 -5.17671,-3.10999 l -0.0579,-0.14084 c 0,0 6.61174,-1.15713 8.3198,-1.65303 1.7081,-0.49589 2.86534,-2.148444 2.86534,-2.148444 l -1.2123,-0.66165 1.76349,-0.440733 -2.14899,-1.101835 2.25889,-0.330826 c 0,0 -2.14905,-1.597645 -4.73872,-2.699634 -0.82942,-0.352947 -1.82192,-0.563514 -2.78909,-0.688162 l -0.792,-0.413671 1.81816,-1.267523 -1.7077,-0.716332 1.26696,-1.046604 c 0,0 -0.93644,-0.661435 -4.79338,-1.267524 -1.5103,-0.237337 -3.18725,-0.33552 -5.25677,-0.20656 3.97103,-3.229726 5.25677,-7.342248 5.25677,-7.342248 l -1.81817,-0.220367 1.26697,-1.266973 -1.76293,0.05523 1.26696,-1.047159 c 0,0 -1.10203,-0.165325 -5.62017,0.220368 -4.14614,0.353941 -4.97854,0.911449 -11.50493,2.871395 l -0.34132,-1.107907 5.39982,-4.132847 c 0,0 3.25049,-2.534406 4.73817,-4.132293 1.48768,-1.597871 2.75541,-6.226055 2.75541,-6.226055 l -2.25946,-0.275556 c 0,0 0.99201,-0.826726 2.42459,-2.204221 1.43259,-1.377475 3.36073,-4.077063 3.36073,-4.077063 l -2.14844,0.109907 0.82623,-1.9833 c 0,0 -1.48754,0.05523 -3.91192,0.05523 -1.07107,0 -2.16224,0.292193 -3.06028,0.616365 l 0.36066,-1.277466 -1.81817,1.046605 c 0,0 -0.33058,-0.275272 -0.22037,-0.605871 0.11011,-0.330601 0.49542,-1.212294 0.49542,-1.212294 0,0 -3.92813,1.684817 -6.95621,3.264081 0.67647,-1.652334 1.18257,-3.179475 1.66685,-4.365915 1.1019,-2.699862 0.99192,-3.692112 0.99192,-3.692112 l -1.81816,0.71633 0.88146,-2.203668 -2.25889,1.212293 0.33027,-1.983854 c 0,0 -2.09345,1.047082 -4.29743,2.644955 -0.23038,0.16702 -0.48452,0.367856 -0.75223,0.58875 0.0468,-0.447711 0.0795,-0.858934 0.0912,-1.195174 0.0551,-1.597888 -0.77156,-3.746789 -0.77156,-3.746789 l -1.37743,0.82679 -0.0553,-2.148991 -2.47925,1.322201 0.22036,-2.314129 c 0,0 -1.54288,0.881532 -5.39982,4.407891 -3.60132,3.292638 -5.94821,7.117742 -11.44085,18.272225 l -0.21097,0.01381 c 1.1317,-3.607375 2.05174,-6.77119 2.39476,-8.533004 1.2122,-6.22622 1.65317,-10.634369 1.48788,-14.546424 -0.16527,-3.911989 -0.9367,-6.28122 -0.9367,-6.28122 l -0.77156,1.762935 -0.88147,-2.314129 -1.21229,1.928625 -0.22036,-2.424588 c 0,0 -3.63659,1.708539 -4.90387,4.628808 -0.72109,1.661667 -1.99394,5.625976 -3.11053,10.103739 l -0.58103,-5.034747 c 0,0 -0.77161,-3.305927 -1.48788,-5.344588 -0.71629,-2.038677 -2.36915,-4.959182 -2.47927,-4.297983 -0.11021,0.661184 -1.65303,1.597798 -1.65302,1.597798 z m 0.23693,50.477825 c 0.55998,0.01171 1.41308,0.323221 2.41077,0.165687 1.4512,-0.229139 1.9092,0.15256 2.74934,0.610842 0.84018,0.458282 2.67348,0.8406 3.28452,0.8406 0.61104,0 1.29846,1.145464 1.29846,1.145464 0,0 1.29874,0.610968 1.68064,1.06925 0.38205,0.458264 0.0762,1.451438 0.0762,1.451438 0,0 1.06916,1.298027 1.37466,1.756309 0.30552,0.458264 -0.2292,2.139048 -0.2292,2.139048 0,0 0.8406,0.68725 0.8406,1.374671 0,0.687406 0.76363,2.520482 1.37467,3.131539 0.61104,0.61103 0.45851,1.2222 0.15299,1.75685 -0.30551,0.53465 -0.68792,0.83994 -0.61139,1.14547 0.0765,0.3055 0.9167,0.22911 1.22223,0.30541 0.3055,0.0764 0.76377,0.68735 0.53463,1.06925 -0.22914,0.38191 -0.76384,2.44453 -0.76384,3.20831 0,0.76379 -1.06946,1.60397 -1.75686,2.5969 -0.6874,0.99293 -0.61079,2.21503 -1.14545,2.59691 -0.53465,0.38189 -2.5969,0.38164 -3.89536,0.38164 -1.29846,0 -6.11034,3.66604 -7.02689,3.97157 -0.91656,0.30551 -8.09601,-3.97172 -8.93619,-4.42997 -0.84002,-0.4583 -0.91681,-2.52015 -0.91681,-2.52015 0,0 -0.22928,-0.61142 -3.05531,-1.37521 0,0 -1.22224,-2.2146 -1.22224,-3.05477 0,-0.84016 0.68761,-1.98596 0.68761,-3.58993 0,-1.60395 -0.30572,-3.207957 -0.2292,-3.895365 0.0765,-0.687426 0.45849,-1.909484 1.45144,-2.596909 0.99291,-0.687403 0.61104,-1.604202 1.29845,-2.749891 0.68743,-1.145686 1.68018,-1.221761 2.67312,-1.450887 0.99291,-0.22914 1.45132,-1.22227 2.29149,-1.986061 0.84018,-0.763794 1.52737,-0.15273 2.44392,-0.534627 0.91654,-0.381895 0.99276,-1.680447 1.37467,-2.291481 0.11933,-0.190923 0.31377,-0.247235 0.56831,-0.241907 z"
       id="path6026"
       inkscape:connector-curvature="0" />
  </g>
</svg>
