<?xml version="1.0" encoding="UTF-8" standalone="no"?>
<!-- Created with Inkscape (http://www.inkscape.org/) -->

<svg
   xmlns:dc="http://purl.org/dc/elements/1.1/"
   xmlns:cc="http://creativecommons.org/ns#"
   xmlns:rdf="http://www.w3.org/1999/02/22-rdf-syntax-ns#"
   xmlns:svg="http://www.w3.org/2000/svg"
   xmlns="http://www.w3.org/2000/svg"
   xmlns:sodipodi="http://sodipodi.sourceforge.net/DTD/sodipodi-0.dtd"
   xmlns:inkscape="http://www.inkscape.org/namespaces/inkscape"
   width="87.047913mm"
   height="87.047913mm"
   viewBox="0 0 87.047912 87.047913"
   version="1.1"
   id="svg8"
   sodipodi:docname="icon.svg"
   inkscape:version="0.92.3 (2405546, 2018-03-11)">
  <defs
     id="defs2" />
  <sodipodi:namedview
     id="base"
     pagecolor="#ffffff"
     bordercolor="#666666"
     borderopacity="1.0"
     inkscape:pageopacity="0.0"
     inkscape:pageshadow="2"
     inkscape:zoom="0.70710678"
     inkscape:cx="153.31043"
     inkscape:cy="116.02425"
     inkscape:document-units="mm"
     inkscape:current-layer="layer1"
     showgrid="false"
     inkscape:window-width="1920"
     inkscape:window-height="1001"
     inkscape:window-x="-9"
     inkscape:window-y="-9"
     inkscape:window-maximized="1"
     fit-margin-top="0"
     fit-margin-left="0"
     fit-margin-right="0"
     fit-margin-bottom="0" />
  <metadata
     id="metadata5">
    <rdf:RDF>
      <cc:Work
         rdf:about="">
        <dc:format>image/svg+xml</dc:format>
        <dc:type
           rdf:resource="http://purl.org/dc/dcmitype/StillImage" />
        <dc:title></dc:title>
      </cc:Work>
    </rdf:RDF>
  </metadata>
  <g
     inkscape:label="Ebene 1"
     inkscape:groupmode="layer"
     id="layer1"
     transform="translate(-59.792496,-84.741327)">
    <g
       id="layer1-9"
       transform="translate(4.6268621,8.2715474)">
      <g
         id="g7139">
        <circle
           r="43.523956"
           cy="119.99374"
           cx="98.68959"
           id="path6636"
           style="opacity:1;fill:#98b131;fill-opacity:1;stroke:none;stroke-width:0.26458332;stroke-opacity:1" />
        <g
           id="g6678"
           transform="translate(-13.278722,0.34731133)">
          <path
             style="fill:#ffdd55;fill-opacity:1;stroke:none;stroke-width:0.26458332px;stroke-linecap:butt;stroke-linejoin:miter;stroke-opacity:1"
             d="m 80.598696,133.18984 c 0,0 -1.488281,0.36381 -2.778125,0.33073 -1.289843,-0.0331 -1.984375,-0.26458 -1.984375,-0.26458 l 0.33073,-0.76068 -1.058334,0.0661 0.760677,-1.48828 -1.488281,-0.3638 c 0,0 1.819011,-2.18282 4.233333,-3.70417 2.414323,-1.52136 2.811198,-1.78594 2.811198,-1.78594 0,0 -3.63802,0.16537 -4.99401,-0.0661 -1.35599,-0.23152 -2.61276,-0.76068 -2.61276,-0.76068 l 0.926041,-1.12448 -1.091406,-0.39688 0.496094,-0.49609 -0.727604,-0.69453 c 0,0 0.661458,-0.3638 2.215885,-0.39688 1.554427,-0.0331 6.217708,-2.94349 6.217708,-2.94349 l -6.647656,-5.68854 -1.058333,-1.15755 1.289843,0.13229 -0.892968,-0.69453 c 0,0 3.737239,-1.88515 5.55625,-1.85208 1.81901,0.0331 2.84427,0.23151 2.84427,0.23151 0,0 -3.009635,-1.15755 -4.729427,-2.48047 -1.719791,-1.32292 -2.976562,-2.41432 -2.976562,-2.41432 l 0.79375,-0.42995 -0.826823,-0.46302 1.157552,-0.39688 -0.892969,-0.7276 c 0,0 3.042709,-0.82682 4.299479,-0.72761 1.256771,0.0992 6.416146,0.26459 6.416146,0.26459 l 0.628384,-3.07578 c 0,0 -1.455207,-1.35599 -2.248957,-2.54662 -0.79375,-1.19062 -1.058333,-2.44739 -1.058333,-2.44739 l 0.595313,0.13229 c 0,0 -0.694532,-1.09141 -0.826823,-2.01745 -0.132292,-0.92604 -0.198438,-1.38906 -0.198438,-1.38906 l 1.025261,0.19844 -0.297657,-0.72761 1.422136,0.13229 -0.198438,-1.28984 1.02529,0.0661 -0.429977,-1.15755 c 0,0 1.819013,0.42995 1.819013,0.42995 l 2.48047,2.87734 c 0,0 -0.82683,-2.97656 -0.8599,-3.93567 -0.0331,-0.95912 -0.23151,-2.05052 -0.23151,-2.05052 l 1.25677,0.66145 -0.0331,-1.65364 1.0914,0.95911 0.23151,-1.48828 c 0,0 2.0836,1.05834 2.74506,1.75287 0.66145,0.69453 1.52135,2.57968 1.52135,2.57968 l 3.96875,1.05834 0.463017,-4.20026 0.39688,-1.88516 1.02526,1.19062 0.49609,-1.32291 0.92604,1.55442 v -1.45521 c 0,0 0.76068,1.48829 1.32292,2.5797 0.56224,1.0914 0.29765,0.52916 0.56224,1.0914 0.26458,0.56224 0.42995,0.99219 0.42995,0.99219 0,0 0.19843,-2.61276 0.95911,-4.10105 0.76068,-1.48828 2.54662,-3.86953 2.54662,-3.86953 l -0.0662,1.09141 1.48828,-1.2237 -0.0331,1.38906 c 0,0 0.92604,-0.56224 0.99219,-0.95911 0.0661,-0.39688 1.05833,1.35599 1.48828,2.57969 0.42994,1.22369 0.89297,3.20807 0.89297,3.20807 l 0.89296,7.73907 1.75287,4.86171 6.58151,-0.42994 10.88099,-1.32292 4.86172,-3.63802 c 0,0 1.55442,-0.89297 3.00963,-0.89297 1.45521,0 2.34818,-0.0331 2.34818,-0.0331 l -0.49609,1.19062 1.28984,-0.0661 c 0,0 -1.15755,1.62057 -2.01745,2.44739 -0.85989,0.82683 -1.45521,1.32292 -1.45521,1.32292 l 1.35599,0.16536 c 0,0 -0.76067,2.77813 -1.65364,3.73724 -0.89297,0.95912 -2.84427,2.48047 -2.84427,2.48047 l -3.24115,2.48047 2.28203,7.40833 8.96276,0.16537 c 0,0 2.51354,-0.16537 4.06797,0.49609 1.55443,0.66146 2.84427,1.62057 2.84427,1.62057 l -1.35599,0.19844 1.28985,0.66146 -1.05834,0.26458 0.72761,0.39688 c 0,0 -0.69453,0.99219 -1.7198,1.28984 -1.02526,0.29766 -4.99401,0.99219 -4.99401,0.99219 l 0.95912,2.3151 c 0,0 1.75286,0.69454 2.48047,1.19063 0.7276,0.49609 1.38906,1.35599 1.38906,1.35599 l -1.68672,-0.23151 1.28985,1.28984 -1.81902,-0.16536 1.19063,1.52135 -1.9513,-0.13229 2.51354,2.41432 -1.9513,0.0331 1.91823,1.88515 -2.48047,-0.39687 1.65364,1.65364 c 0,0 -2.31509,-0.0993 -3.70416,-0.52916 -1.38907,-0.4299 -4.0349,-1.32292 -4.0349,-1.32292 0,0 3.07578,1.88516 4.79557,3.86953 1.7198,1.98438 2.21589,2.77813 2.21589,2.77813 l -2.14974,-0.59532 1.25677,1.35599 -1.65365,-0.19843 1.19063,1.05833 c 0,0 -2.91042,0.56224 -4.99401,0.0661 -2.08359,-0.49609 -4.79557,-2.14973 -4.79557,-2.14973 l -0.23151,1.05833 c 0,0 1.42213,1.02526 2.48046,3.00963 1.05834,1.98438 1.85209,4.26641 1.85209,4.26641 l -1.71979,-0.52917 0.82682,1.45521 -1.25677,-0.49609 0.62838,1.2237 c 0,0 -1.12448,0.0992 -2.71198,-0.52917 -1.5875,-0.62839 -8.56588,-3.47266 -8.56588,-3.47266 0,0 2.28203,4.89479 2.77812,6.44922 0.4961,1.55443 1.25678,4.29948 1.25678,4.29948 l -1.38907,-1.09141 0.59532,1.62058 -1.45521,-0.59532 0.16536,1.28985 c 0,0 -3.40651,-2.14974 -5.55625,-4.7625 -2.14974,-2.61276 -3.80338,-6.15156 -3.80338,-6.15156 0,0 0.7276,3.24114 0.95911,5.68854 0.23151,2.44739 0.3638,5.06015 0.0992,6.18463 -0.26458,1.12448 -0.46302,1.5875 -0.46302,1.5875 l -1.28985,-1.42213 -0.52916,1.71979 c 0,0 -1.38906,-1.62057 -1.85208,-2.97656 -0.46303,-1.35599 -0.46303,-2.94349 -0.46303,-2.94349 l -5.98619,-1.48828 c 0,0 0,2.77812 -0.99219,4.89479 -0.99219,2.11666 -2.01745,3.04271 -2.01745,3.04271 l -0.69453,-0.89297 -0.33073,0.99218 -0.46302,-0.99218 -0.42995,0.85989 c 0,0 -1.71979,-1.75286 -2.05052,-3.00963 -0.33073,-1.25677 -0.52917,-1.62058 -0.52917,-1.62058 0,0 -0.62838,1.88516 -1.78593,3.3073 -1.15756,1.42213 -2.678907,2.44739 -2.678907,2.44739 l -0.33073,-1.68672 -0.82682,1.68672 -0.4961,-1.75286 -0.95911,1.2237 c 0,0 -0.3638,-2.71198 -0.19844,-4.66329 0.16537,-1.9513 0.39688,-6.31692 0.39688,-6.31692 l -3.24115,4.89479 c 0,0 -0.7276,1.35599 -1.42213,1.98437 -0.69453,0.62839 -1.12448,0.69454 -1.12448,0.69454 l 0.16536,-1.05834 -0.95911,0.46302 0.39687,-1.2237 -1.25677,0.76068 c 0,0 0.0992,-2.01745 0.89297,-3.5388 0.79375,-1.52135 4.10104,-7.73906 4.10104,-7.73906 0,0 -2.8112,3.27422 -3.63802,4.29948 -0.82682,1.02526 -0.95911,1.02526 -0.95911,1.02526 0,0 -0.82669,1.09147 -1.32279,1.4222 -0.49609,0.33072 -1.42213,0.56224 -1.42213,0.56224 l 0.52916,-0.79375 -0.89297,0.46302 0.36381,-0.76068 -0.892973,0.39687 c 0,0 -0.595312,-0.0331 0.892973,-2.57968 1.48828,-2.54662 5.29166,-8.40052 5.29166,-8.40052 0,0 -4.79557,3.57187 -5.95312,4.16718 -1.157554,0.59532 -3.968752,1.48828 -3.968752,1.48828 l 0.330729,-0.66145 -0.926042,0.13229 0.330729,-0.62839 -0.826823,0.23151 c 0,0 0.429948,-1.65364 1.223698,-2.97656 0.79375,-1.32292 2.94349,-3.67109 2.94349,-3.67109 z"
             id="path6026"
             inkscape:connector-curvature="0" />
          <path
             style="fill:#f2a072;fill-opacity:1;stroke:none;stroke-width:0.26458332px;stroke-linecap:butt;stroke-linejoin:miter;stroke-opacity:1"
             d="m 113.30782,110.86559 c 0,0 1.02526,-3.47266 4.86173,-11.34401 3.83645,-7.87136 5.25859,-10.28568 7.5737,-12.40235 2.3151,-2.11667 3.24114,-2.64583 3.24114,-2.64583 l -0.13229,1.38906 1.48828,-0.79375 0.0331,1.28984 0.82682,-0.49609 c 0,0 0.4961,1.28984 0.46302,2.24896 -0.0331,0.95911 -0.29765,2.77812 -0.85989,4.46484 -0.56224,1.68672 -1.68672,4.53099 -3.6711,7.27604 -1.98437,2.74506 -9.29349,11.04636 -10.78177,12.43542 -1.48828,1.38906 -3.04271,-1.42213 -3.04271,-1.42213 z"
             id="path3741"
             inkscape:connector-curvature="0" />
          <path
             style="fill:#f2a072;fill-opacity:1;stroke:none;stroke-width:0.26458332px;stroke-linecap:butt;stroke-linejoin:miter;stroke-opacity:1"
             d="m 116.84663,114.00751 c 0,0 9.22735,-5.52317 12.46849,-8.10286 3.24114,-2.57969 8.83046,-8.00365 9.78958,-9.8888 0.95912,-1.88516 1.35599,-3.80339 1.35599,-3.80339 l -0.95912,0.66146 0.36381,-1.28984 -1.0914,0.62838 c 0,0 -0.19844,-0.16536 -0.13229,-0.3638 0.0661,-0.19844 0.29764,-0.72761 0.29764,-0.72761 0,0 -3.93566,1.68672 -5.55625,2.74506 -1.62057,1.05833 -5.09321,4.33255 -5.09321,4.33255 0,0 -4.3987,4.56406 -6.48231,6.68073 -2.08358,2.11666 -6.38306,7.77213 -6.38306,7.77213 z"
             id="path3743"
             inkscape:connector-curvature="0" />
          <path
             style="fill:#f2a072;fill-opacity:1;stroke:none;stroke-width:0.26458332px;stroke-linecap:butt;stroke-linejoin:miter;stroke-opacity:1"
             d="m 118.30183,117.21559 c 0,0 10.41798,-3.57188 16.37111,-5.22553 5.95312,-1.65364 8.89661,-1.81901 11.21172,-1.4552 2.31509,0.3638 2.87734,0.76067 2.87734,0.76067 l -0.76068,0.62839 1.02525,0.42995 -1.09139,0.76067 1.4552,0.76068 c 0,0 -1.55443,1.32292 -2.87734,1.81901 -1.32291,0.49609 -4.06797,1.35599 -8.53281,1.88516 -4.46485,0.52916 -18.32241,1.32291 -19.5461,1.28984 -1.2237,-0.0331 -0.1323,-1.65364 -0.1323,-1.65364 z"
             id="path3749"
             inkscape:connector-curvature="0" />
          <path
             style="fill:#f2a072;fill-opacity:1;stroke:none;stroke-width:0.26458332px;stroke-linecap:butt;stroke-linejoin:miter;stroke-opacity:1"
             d="m 118.43413,121.15126 c 0,0 12.76614,2.64584 15.97422,3.57188 3.20808,0.92604 6.81303,1.85208 8.7974,3.9026 1.98438,2.05052 1.91823,2.8112 1.91823,2.8112 l -1.22371,-0.0661 1.38906,1.19063 h -1.75285 l 1.38906,1.65364 c 0,0 -2.05053,1.15756 -5.09323,0.26459 -3.04271,-0.89297 -9.525,-3.70417 -13.65912,-6.08542 -4.13412,-2.38125 -8.56588,-5.4901 -8.56588,-5.4901 z"
             id="path3751"
             inkscape:connector-curvature="0" />
          <path
             style="fill:#f2a072;fill-opacity:1;stroke:none;stroke-width:0.26458332px;stroke-linecap:butt;stroke-linejoin:miter;stroke-opacity:1"
             d="m 115.32527,124.69006 c 0,0 6.77996,12.03855 10.12031,16.66875 3.34037,4.63021 4.69636,6.21771 8.00366,8.66511 3.30728,2.44739 4.10103,2.64583 4.10103,2.64583 l -0.82682,-1.28984 1.45522,1.0914 -0.29767,-1.35599 1.356,0.26459 c 0,0 -0.0662,-1.85209 -1.75287,-4.79558 -1.68671,-2.94348 -6.58151,-8.99583 -9.49193,-12.33619 -2.91041,-3.34037 -10.38489,-11.34396 -10.38489,-11.34396 z"
             id="path3753"
             inkscape:connector-curvature="0" />
          <path
             style="fill:#f2a072;fill-opacity:1;stroke:none;stroke-width:0.26458332px;stroke-linecap:butt;stroke-linejoin:miter;stroke-opacity:1"
             d="m 96.440627,154.95178 0.0992,1.19063 c 0,0 3.836463,-2.21589 5.357813,-4.89479 1.52134,-2.67891 5.72162,-12.76615 6.68074,-19.51302 0.95912,-6.74688 1.0914,-7.34219 1.0914,-7.34219 l -1.62057,-0.52917 c 0,0 -5.7547,8.40052 -8.466673,14.22136 -2.71199,5.82083 -4.8948,9.45885 -5.19245,12.96458 -0.29766,3.50573 0.56224,4.66328 0.56224,4.66328 l 0.66145,-0.8599 0.16537,1.2237 z"
             id="path3757"
             inkscape:connector-curvature="0" />
          <path
             style="fill:#f2a072;fill-opacity:1;stroke:none;stroke-width:0.26458332px;stroke-linecap:butt;stroke-linejoin:miter;stroke-opacity:1"
             d="m 104.90729,121.81272 c 0,0 -6.912243,1.71979 -13.394533,2.14974 -6.48228,0.42995 -10.91406,1.2237 -13.55989,0 -2.64583,-1.2237 -3.80338,-2.77812 -3.80338,-2.77812 l 0.82682,-0.0992 -0.79375,-0.66146 0.62838,-0.39688 -0.85989,-0.49609 c 0,0 1.45521,-1.9513 5.32474,-2.41432 3.86953,-0.46302 10.48411,0.39687 16.99947,1.62057 6.515373,1.2237 8.135943,1.55443 8.135943,1.55443 z"
             id="path3759"
             inkscape:connector-curvature="0" />
          <path
             style="fill:#f2a072;fill-opacity:1;stroke:none;stroke-width:0.26458332px;stroke-linecap:butt;stroke-linejoin:miter;stroke-opacity:1"
             d="m 107.09012,112.58538 c 0,0 -3.8034,-6.61459 -7.309133,-11.4763 -3.50573,-4.86172 -7.5737,-8.69818 -9.19427,-9.85573 -1.62057,-1.15756 -2.08359,-1.42214 -2.08359,-1.42214 l 0.0331,0.99219 -0.76067,-0.59531 0.26458,1.12447 -0.92604,-0.79375 c 0,0 -0.46302,3.20808 2.3151,7.2099 2.77812,4.00182 15.841933,18.02474 15.841933,18.02474 z"
             id="path3763"
             inkscape:connector-curvature="0" />
          <path
             style="fill:#ffeeaa;fill-opacity:1;stroke:none;stroke-width:0.26458332px;stroke-linecap:butt;stroke-linejoin:miter;stroke-opacity:1"
             d="m 114.46538,110.83252 c 0,0 8.26824,-12.50156 11.07943,-15.70963 2.81119,-3.20807 5.19244,-5.68854 6.51537,-6.64766 1.32292,-0.95911 2.57969,-1.58751 2.57969,-1.58751 l -0.19844,1.19064 1.35599,-0.72761 -0.52917,1.32292 1.09141,-0.42995 c 0,0 0.0661,0.59532 -0.59531,2.21589 -0.66147,1.62057 -1.38908,4.29948 -3.24116,6.51536 -1.85207,2.21589 -7.54062,7.77214 -10.61639,10.3849 -3.0758,2.61276 -6.05236,4.7625 -6.05236,4.7625 z"
             id="path6006"
             inkscape:connector-curvature="0" />
          <path
             style="fill:#ffeeaa;fill-opacity:1;stroke:none;stroke-width:0.26458332px;stroke-linecap:butt;stroke-linejoin:miter;stroke-opacity:1"
             d="m 116.64819,114.17289 c 0,0 12.23699,-6.01927 17.231,-7.47448 4.994,-1.45521 5.29167,-1.81901 8.00364,-2.05052 2.71198,-0.23151 3.37343,-0.13229 3.37343,-0.13229 l -0.76066,0.62838 1.05833,-0.0331 -0.76068,0.76068 1.09141,0.13229 c 0,0 -1.12448,3.60495 -4.86172,5.52318 -3.73725,1.91822 -13.19609,4.2664 -16.63569,4.7625 -3.43957,0.49609 -6.48228,0.82682 -6.48228,0.82682 z"
             id="path6008"
             inkscape:connector-curvature="0" />
          <path
             style="fill:#ffeeaa;fill-opacity:1;stroke:none;stroke-width:0.26458332px;stroke-linecap:butt;stroke-linejoin:miter;stroke-opacity:1"
             d="m 117.93805,120.25831 c 0,0 7.30911,2.05052 11.93932,2.87734 4.6302,0.82682 6.7138,1.42213 12.73307,1.68672 6.01926,0.26458 6.11849,-1.81901 6.11849,-1.81901 l -0.79375,-0.56224 0.99219,-0.33073 -0.99219,-0.62839 1.02526,-0.33073 c 0,0 -1.98438,-1.91822 -5.78776,-2.6789 -3.80338,-0.76068 -11.67474,-1.52136 -16.96642,-1.25677 -5.29165,0.26458 -8.53281,0.56224 -8.53281,0.56224 z"
             id="path6010"
             inkscape:connector-curvature="0" />
          <path
             style="fill:#ffeeaa;fill-opacity:1;stroke:none;stroke-width:0.26458332px;stroke-linecap:butt;stroke-linejoin:miter;stroke-opacity:1"
             d="m 116.41668,124.02862 c 0,0 4.3987,5.78776 8.89663,9.65729 4.49791,3.86953 7.57369,6.35 10.05416,6.91224 2.48047,0.56224 3.80339,0.13229 3.80339,0.13229 l -0.49611,-0.89297 0.99219,0.0992 -0.72759,-0.82682 1.15754,-0.29766 c 0,0 -0.26458,-2.05052 -3.00964,-4.92786 -2.74505,-2.87735 -7.54062,-5.72162 -12.86536,-8.13594 -5.32473,-2.41432 -7.14375,-3.20807 -7.14375,-3.20807 z"
             id="path6012"
             inkscape:connector-curvature="0" />
          <path
             style="fill:#ffeeaa;fill-opacity:1;stroke:none;stroke-width:0.26458332px;stroke-linecap:butt;stroke-linejoin:miter;stroke-opacity:1"
             d="m 111.25729,124.39241 c 0,0 -1.4552,9.1612 -1.02526,16.17266 0.42995,7.01146 0.49611,12.89844 2.05052,16.04036 1.55443,3.14193 2.67892,4.29948 2.67892,4.29948 l 0.7276,-1.15755 0.46302,1.15755 0.52917,-1.28984 0.56223,1.25677 c 0,0 2.74505,-5.35781 2.44741,-10.45104 -0.29767,-5.09323 -1.95131,-13.0638 -3.14193,-17.66094 -1.19063,-4.59714 -2.48048,-8.53281 -2.48048,-8.53281 z"
             id="path6014"
             inkscape:connector-curvature="0" />
          <path
             style="fill:#ffeeaa;fill-opacity:1;stroke:none;stroke-width:0.26458332px;stroke-linecap:butt;stroke-linejoin:miter;stroke-opacity:1"
             d="m 107.02398,124.69008 c 0,0 -2.28206,6.01927 -5.75469,10.2526 -3.472673,4.23333 -10.318763,12.36927 -11.542463,13.29531 -1.2237,0.92604 -2.01745,1.19063 -2.01745,1.19063 l 0.23151,-0.82683 -0.7276,0.39688 0.23151,-0.8599 -0.92604,0.39688 c 0,0 -0.33073,-1.71979 1.52135,-5.88698 1.85208,-4.16719 6.41614,-9.85573 8.03672,-11.67474 1.62057,-1.81901 -2.14974,2.84427 -4.66328,4.53099 -2.51354,1.68672 -3.96875,2.8112 -5.72161,3.30729 -1.75287,0.4961 -3.57188,0.76068 -3.57188,0.76068 l 0.4961,-0.92604 -1.32292,0.33073 0.49609,-1.12448 -1.0914,0.42994 c 0,0 -0.46302,-2.14973 1.15755,-4.13411 1.62057,-1.98437 5.06015,-4.46484 8.56588,-6.01927 3.50573,-1.55443 13.824483,-5.58932 13.824483,-5.58932 l 1.58751,0.13229 z"
             id="path6016"
             inkscape:connector-curvature="0" />
          <path
             style="fill:#ffeeaa;fill-opacity:1;stroke:none;stroke-width:0.26458332px;stroke-linecap:butt;stroke-linejoin:miter;stroke-opacity:1"
             d="m 103.28672,120.25831 c 0,0 -12.501563,1.75286 -18.752343,0.92604 -6.25078,-0.82683 -12.17083,-3.43959 -12.17083,-3.43959 l 0.95912,-0.62838 -0.99219,-0.52917 0.82682,-0.3638 -0.79375,-0.76068 c 0,0 3.5388,-2.05052 8.03672,-2.34817 4.49792,-0.29766 17.4625,2.61276 19.51302,3.20807 2.050523,0.59531 3.737243,1.35599 3.737243,1.35599 z"
             id="path6018"
             inkscape:connector-curvature="0" />
          <path
             style="fill:#ffeeaa;fill-opacity:1;stroke:none;stroke-width:0.26458332px;stroke-linecap:butt;stroke-linejoin:miter;stroke-opacity:1"
             d="m 105.27113,115.79345 c 0,0 -18.024743,-6.68073 -21.563533,-9.82266 -3.5388,-3.14192 -5.15938,-6.51536 -5.15938,-6.51536 l 1.35599,0.33073 -1.15755,-1.2237 1.48828,0.26458 -0.82682,-1.15755 c 0,0 4.59713,0 8.99583,2.05052 4.39869,2.05052 18.355493,13.75834 18.355493,13.75834 z"
             id="path6020"
             inkscape:connector-curvature="0" />
          <path
             style="fill:#ffeeaa;fill-opacity:1;stroke:none;stroke-width:0.26458332px;stroke-linecap:butt;stroke-linejoin:miter;stroke-opacity:1"
             d="m 107.61931,112.02315 c 0,0 -6.6146,-10.84791 -8.466684,-15.3789 -1.85208,-4.53099 -2.74505,-6.54844 -2.87735,-7.87136 -0.13229,-1.32292 0.72761,-3.90261 0.72761,-3.90261 l 0.69453,0.66146 v -1.12448 l 0.95911,0.7276 0.1323,-1.28984 c 0,0 2.017444,0.99219 3.770314,3.77032 1.75286,2.77813 4.29949,12.07162 4.86173,13.95677 0.56223,1.88516 2.67889,9.45886 2.67889,9.45886 z"
             id="path6022"
             inkscape:connector-curvature="0" />
          <path
             style="fill:#ffeeaa;fill-opacity:1;stroke:none;stroke-width:0.26458332px;stroke-linecap:butt;stroke-linejoin:miter;stroke-opacity:1"
             d="m 114.46538,110.83252 c 0,0 4.99401,-14.12213 5.72162,-17.85937 0.72761,-3.73724 0.99218,-6.38308 0.89297,-8.73126 -0.0992,-2.34818 -0.56224,-3.77031 -0.56224,-3.77031 l -0.46303,1.05833 -0.52915,-1.38906 -0.72762,1.15755 -0.13229,-1.45521 c 0,0 -2.18281,1.02526 -2.94348,2.77813 -0.76068,1.75286 -2.54661,7.77214 -3.04272,12.23699 -0.49608,4.46484 -1.52134,15.64349 -1.52134,15.64349 z"
             id="path6024"
             inkscape:connector-curvature="0" />
          <path
             style="fill:#8c4a33;fill-opacity:1;stroke:none;stroke-width:0.26458332px;stroke-linecap:butt;stroke-linejoin:miter;stroke-opacity:1"
             d="m 103.50293,123.18581 c 1.6963,0.45846 1.83384,0.82523 1.83384,0.82523 0,0 0.0459,1.23784 0.55015,1.51292 0.50431,0.27507 4.81383,2.84245 5.36398,2.65907 0.55016,-0.18339 3.43845,-2.384 4.21783,-2.384 0.77939,0 2.01723,0 2.33815,-0.22923 0.32092,-0.22922 0.27508,-0.96276 0.68769,-1.55876 0.41261,-0.596 1.05446,-1.1003 1.05446,-1.55876 0,-0.45846 0.32092,-1.6963 0.45846,-1.92553 0.13754,-0.22923 -0.13754,-0.596 -0.32092,-0.64185 -0.18339,-0.0458 -0.68769,0 -0.73354,-0.18338 -0.0459,-0.18339 0.18339,-0.36677 0.36677,-0.68769 0.18338,-0.32092 0.27507,-0.68769 -0.0917,-1.05446 -0.36677,-0.36677 -0.82523,-1.46707 -0.82523,-1.87968 0,-0.41262 -0.50431,-0.82523 -0.50431,-0.82523 0,0 0.32092,-1.00862 0.13754,-1.28369 -0.18338,-0.27508 -0.82523,-1.05446 -0.82523,-1.05446 0,0 0.18339,-0.596 -0.0459,-0.87107 -0.22923,-0.27508 -1.00861,-0.64185 -1.00861,-0.64185 0,0 -0.41261,-0.68768 -0.77938,-0.68768 -0.36677,0 -1.46707,-0.22923 -1.97138,-0.50431 -0.5043,-0.27508 -0.77938,-0.50431 -1.65045,-0.36677 -0.87107,0.13754 -1.55877,-0.32092 -1.788,0.0458 -0.22923,0.36677 -0.27507,1.14615 -0.82522,1.37538 -0.55015,0.22923 -0.96277,-0.13754 -1.46708,0.32092 -0.5043,0.45846 -0.77938,1.05446 -1.37537,1.192 -0.596,0.13753 -1.192,0.18338 -1.60462,0.87107 -0.41261,0.68769 -0.18338,1.23784 -0.77937,1.65045 -0.59601,0.41262 -0.82524,1.14615 -0.87108,1.55877 -0.0459,0.41261 0.13754,1.37538 0.13754,2.33814 0,0.96277 -0.41262,1.65046 -0.41262,2.15476 0,0.50431 0.73354,1.83384 0.73354,1.83384 z"
             id="path6103"
             inkscape:connector-curvature="0" />
          <path
             style="fill:#ffeeaa;stroke:none;stroke-width:0.26458332px;stroke-linecap:butt;stroke-linejoin:miter;stroke-opacity:1"
             d="m 105.19923,117.36337 0.596,-1.14615 c 0,0 -0.36677,-0.45846 -0.596,-0.41261 -0.22923,0.0459 -0.55015,0.0459 -0.55015,0.41261 0,0.36677 -0.5043,0.68769 -0.0917,0.91692 0.41261,0.22923 0.64184,0.22923 0.64184,0.22923 z"
             id="path6105"
             inkscape:connector-curvature="0" />
          <path
             style="fill:#ffeeaa;stroke:none;stroke-width:0.26458332px;stroke-linecap:butt;stroke-linejoin:miter;stroke-opacity:1"
             d="m 107.53738,117.17999 c 0.41261,0 0.87107,-0.13754 0.91692,-0.32092 0.0458,-0.18339 0.0458,-0.596 0.0458,-0.596 0,0 -0.27508,-0.0917 -0.55015,-0.0917 -0.27508,0 -0.50431,0.0917 -0.50431,0.36676 0,0.27508 0.0917,0.64185 0.0917,0.64185 z"
             id="path6107"
             inkscape:connector-curvature="0" />
          <path
             style="fill:#ffeeaa;stroke:none;stroke-width:0.26458332px;stroke-linecap:butt;stroke-linejoin:miter;stroke-opacity:1"
             d="m 108.08753,115.02523 c 0.36677,0 0.77938,-0.27508 0.77938,-0.50431 0,-0.22923 0.0459,-0.18338 -0.22923,-0.32092 -0.27507,-0.13754 -0.45846,-0.32092 -0.64184,-0.0459 -0.18339,0.27508 -0.32092,0.36677 -0.32092,0.55015 0,0.18339 0.41261,0.32093 0.41261,0.32093 z"
             id="path6109"
             inkscape:connector-curvature="0" />
          <path
             style="fill:#ffeeaa;stroke:none;stroke-width:0.26458332px;stroke-linecap:butt;stroke-linejoin:miter;stroke-opacity:1"
             d="m 111.06752,113.87908 c 0.45846,-0.0459 0.68769,-0.36677 0.73354,-0.596 0.0458,-0.22923 -0.0459,-0.27508 -0.22923,-0.41261 -0.18339,-0.13754 -0.41262,-0.27508 -0.596,-0.0459 -0.18339,0.22923 -0.27508,0.64184 -0.27508,0.64184 z"
             id="path6111"
             inkscape:connector-curvature="0" />
          <path
             style="fill:#ffeeaa;stroke:none;stroke-width:0.26458332px;stroke-linecap:butt;stroke-linejoin:miter;stroke-opacity:1"
             d="m 111.61767,112.04524 c 0.36677,-0.32092 0.596,-0.77938 0.596,-0.77938 0,0 -0.0458,-0.27508 -0.36677,-0.27508 -0.32092,0 -0.68769,0.0917 -0.73353,0.32092 -0.0459,0.22923 -0.41262,0.27508 -0.22923,0.596 0.18338,0.32092 0.36676,0.36677 0.36676,0.36677 z"
             id="path6113"
             inkscape:connector-curvature="0" />
          <path
             style="fill:#ffeeaa;stroke:none;stroke-width:0.26458332px;stroke-linecap:butt;stroke-linejoin:miter;stroke-opacity:1"
             d="m 113.35982,113.14554 c 0.32092,0.45846 0.64184,0.55015 0.91692,0.45846 0.27508,-0.0917 0.32092,-0.36677 0.36677,-0.5043 0.0459,-0.13754 0.41261,-0.36677 0,-0.55016 -0.41262,-0.18338 -0.41262,-0.22923 -0.64185,-0.22923 -0.22923,0 -0.5043,0.32093 -0.5043,0.32093 z"
             id="path6115"
             inkscape:connector-curvature="0" />
          <path
             style="fill:#ffeeaa;stroke:none;stroke-width:0.26458332px;stroke-linecap:butt;stroke-linejoin:miter;stroke-opacity:1"
             d="m 116.15642,114.88769 c 0.32093,0.18338 0.50431,0.32092 0.64185,0.0459 0.13754,-0.27508 0.41261,-0.82523 0.41261,-0.82523 0,0 -0.0917,-0.36677 -0.41261,-0.36677 -0.32092,0 -0.55015,0.0459 -0.596,0.27508 -0.0459,0.22922 -0.0459,0.87107 -0.0459,0.87107 z"
             id="path6117"
             inkscape:connector-curvature="0" />
          <path
             style="fill:#ffeeaa;stroke:none;stroke-width:0.26458332px;stroke-linecap:butt;stroke-linejoin:miter;stroke-opacity:1"
             d="m 114.50597,116.58399 c 0.41261,-0.0917 0.68769,-0.64184 0.68769,-0.64184 l -0.0917,-0.41262 c 0,0 -0.41261,-0.18338 -0.77938,-0.18338 -0.36677,0 -0.73354,0.18338 -0.73354,0.50431 0,0.32092 0.22923,0.68768 0.45846,0.73353 0.22923,0.0459 0.45846,0 0.45846,0 z"
             id="path6119"
             inkscape:connector-curvature="0" />
          <path
             style="fill:#ffeeaa;stroke:none;stroke-width:0.26458332px;stroke-linecap:butt;stroke-linejoin:miter;stroke-opacity:1"
             d="m 116.56904,117.5926 c 0.41261,-0.13754 0.68769,-0.596 0.68769,-0.596 l -0.13754,-0.55015 c 0,0 -0.41261,-0.41261 -0.64184,-0.18338 -0.22923,0.22923 -0.32093,0.18338 -0.22923,0.596 0.0917,0.41261 0.32092,0.73353 0.32092,0.73353 z"
             id="path6121"
             inkscape:connector-curvature="0" />
          <path
             style="fill:#ffeeaa;stroke:none;stroke-width:0.26458332px;stroke-linecap:butt;stroke-linejoin:miter;stroke-opacity:1"
             d="m 116.93581,119.24306 c -0.22923,0.18338 -0.45846,0.0917 -0.32092,0.45846 0.13753,0.36677 0.0917,0.41261 0.36676,0.41261 0.27508,0 0.32092,0.41262 0.50431,-0.0458 0.18338,-0.45847 0.18338,-0.82523 0.18338,-0.82523 z"
             id="path6123"
             inkscape:connector-curvature="0" />
          <path
             style="fill:#ffeeaa;stroke:none;stroke-width:0.26458332px;stroke-linecap:butt;stroke-linejoin:miter;stroke-opacity:1"
             d="m 114.59766,121.5812 c 0.27508,0 0.596,-0.0458 0.73354,-0.32092 0.13753,-0.27507 0.13753,-0.96276 0.13753,-0.96276 0,0 -0.32092,-0.22923 -0.59599,-0.0917 -0.27508,0.13754 -0.45846,0.41262 -0.596,0.68769 -0.13754,0.27508 0.32092,0.68769 0.32092,0.68769 z"
             id="path6125"
             inkscape:connector-curvature="0" />
          <path
             style="fill:#ffeeaa;stroke:none;stroke-width:0.26458332px;stroke-linecap:butt;stroke-linejoin:miter;stroke-opacity:1"
             d="m 118.31118,121.81043 c 0,0 0.45847,0.36677 0.55016,0.13754 0.0917,-0.22923 0.0917,-0.36677 0.0917,-0.55015 0,-0.18338 -0.22923,-0.50431 -0.22923,-0.50431 l -0.27508,-0.0917 -0.32092,0.0917 -0.18339,0.22923 v 0.27508 l 0.13754,0.5043 z"
             id="path6127"
             inkscape:connector-curvature="0" />
          <path
             style="fill:#ffeeaa;stroke:none;stroke-width:0.26458332px;stroke-linecap:butt;stroke-linejoin:miter;stroke-opacity:1"
             d="m 115.88135,124.19442 c 0.27507,0.18339 0.45846,0.55016 0.91692,0.0917 0.45846,-0.45846 0.45846,-0.68769 0.45846,-0.68769 0,0 -0.0917,-0.18339 -0.36677,-0.22923 -0.27507,-0.0459 -0.41261,-0.18339 -0.596,0 -0.18338,0.18338 -0.22923,0.45846 -0.22923,0.45846 z"
             id="path6129"
             inkscape:connector-curvature="0" />
          <path
             style="fill:#ffeeaa;stroke:none;stroke-width:0.26458332px;stroke-linecap:butt;stroke-linejoin:miter;stroke-opacity:1"
             d="m 114.09336,125.01965 0.55015,0.13754 c 0,0 -0.50431,0.0459 0.36676,-0.45846 0.87108,-0.50431 0.32093,-0.87107 -0.13753,-0.87107 -0.45846,0 -1.00861,0.32092 -1.00861,0.5043 0,0.18339 0.22923,0.68769 0.22923,0.68769 z"
             id="path6131"
             inkscape:connector-curvature="0" />
          <path
             style="fill:#ffeeaa;stroke:none;stroke-width:0.26458332px;stroke-linecap:butt;stroke-linejoin:miter;stroke-opacity:1"
             d="m 112.4429,126.57842 c 0,0 0.18338,0.45845 0.55015,0.18338 0.36677,-0.27508 0.87108,-0.50431 0.50431,-0.73354 -0.36677,-0.22923 -0.68769,-0.27507 -0.82523,-0.0458 -0.13754,0.22923 -0.22923,0.596 -0.22923,0.596 z"
             id="path6133"
             inkscape:connector-curvature="0" />
          <path
             style="fill:#ffeeaa;stroke:none;stroke-width:0.26458332px;stroke-linecap:butt;stroke-linejoin:miter;stroke-opacity:1"
             d="m 110.24229,126.71595 c 0.32092,0.18339 0.596,0.55015 0.87108,0.41262 0.27507,-0.13754 0.36676,-0.82523 0.36676,-0.82523 0,0 -0.22923,-0.36677 -0.5043,-0.36677 -0.27508,0 -0.55016,0.32092 -0.55016,0.32092 z"
             id="path6135"
             inkscape:connector-curvature="0" />
          <path
             style="fill:#ffeeaa;stroke:none;stroke-width:0.26458332px;stroke-linecap:butt;stroke-linejoin:miter;stroke-opacity:1"
             d="m 111.15921,124.83627 c 0,0 0.68769,0 0.87108,-0.41262 0.18338,-0.41261 0.0917,-0.77938 -0.13754,-0.77938 -0.22923,0 -0.73354,0.0459 -0.87108,0.22923 -0.13753,0.18339 -0.22923,0.596 -0.22923,0.596 z"
             id="path6137"
             inkscape:connector-curvature="0" />
          <path
             style="fill:#ffeeaa;stroke:none;stroke-width:0.26458332px;stroke-linecap:butt;stroke-linejoin:miter;stroke-opacity:1"
             d="m 108.4543,125.84488 c 0.41261,0.13754 0.13754,0.13754 0.50431,0.18338 0.36676,0.0459 0.73353,-0.59599 0.73353,-0.59599 l -0.50431,-0.55016 -0.59599,0.36677 z"
             id="path6139"
             inkscape:connector-curvature="0" />
          <path
             style="fill:#ffeeaa;stroke:none;stroke-width:0.26458332px;stroke-linecap:butt;stroke-linejoin:miter;stroke-opacity:1"
             d="m 106.84969,123.82766 c 0,0 0.18338,0.55015 0.50431,0.32092 0.32092,-0.22923 0.45845,-0.45846 0.45845,-0.45846 0,0 0.0459,-0.18339 0.0459,-0.596 0,-0.41261 0.0458,-0.68769 -0.13753,-0.68769 -0.18339,0 -0.64185,-0.0917 -0.64185,0.13754 0,0.22923 -0.0458,0.50431 -0.0458,0.73354 0,0.22922 -0.18338,0.55015 -0.18338,0.55015 z"
             id="path6141"
             inkscape:connector-curvature="0" />
          <path
             style="fill:#ffeeaa;stroke:none;stroke-width:0.26458332px;stroke-linecap:butt;stroke-linejoin:miter;stroke-opacity:1"
             d="m 104.41985,120.80182 0.32092,0.18339 0.50431,-0.0459 0.27507,-0.45846 c 0,0 0,-0.22923 -0.18338,-0.36677 -0.18339,-0.13754 -0.45846,-0.36677 -0.45846,-0.36677 l -0.22923,-0.13754 -0.5043,0.32098 c 0,0 0.0458,0.32092 0.0458,0.50431 0,0.18338 0.22922,0.36676 0.22922,0.36676 z"
             id="path6143"
             inkscape:connector-curvature="0" />
        </g>
      </g>
    </g>
  </g>
</svg>
