<?xml version="1.0" encoding="UTF-8" standalone="no"?>
<svg
   xmlns:dc="http://purl.org/dc/elements/1.1/"
   xmlns:cc="http://creativecommons.org/ns#"
   xmlns:rdf="http://www.w3.org/1999/02/22-rdf-syntax-ns#"
   xmlns:svg="http://www.w3.org/2000/svg"
   xmlns="http://www.w3.org/2000/svg"
   id="svg8"
   version="1.1"
   viewBox="0 0 87.177047 86.760598"
   height="86.760597mm"
   width="87.177048mm">
  <defs
     id="defs2" />
  <metadata
     id="metadata5">
    <rdf:RDF>
      <cc:Work
         rdf:about="">
        <dc:format>image/svg+xml</dc:format>
        <dc:type
           rdf:resource="http://purl.org/dc/dcmitype/StillImage" />
        <dc:title></dc:title>
      </cc:Work>
    </rdf:RDF>
  </metadata>
  <g
     transform="translate(-59.951654,-84.889191)"
     id="layer1">
    <g
       id="g7377">
      <path
         style="opacity:1;fill:#ffffff;fill-opacity:1;stroke:none;stroke-width:0.26161394;stroke-opacity:1"
         d="m 147.03929,164.49745 c -2.74199,4.03433 -28.56273,6.87612 -43.04254,6.87612 -14.479799,0 -40.697422,-1.82728 -43.836285,-6.87612 -3.138863,-5.04885 14.479804,-21.37005 21.719707,-32.05507 7.239903,-10.68502 -20.14447,-23.60079 21.587418,-23.60079 41.73189,0 14.61209,12.91577 21.85199,23.60079 7.2399,10.68502 24.4617,28.02073 21.71971,32.05507 z"
         id="path7356" />
      <circle
         style="opacity:1;fill:#ffffff;fill-opacity:1;stroke:none;stroke-width:0.26458332;stroke-opacity:1"
         id="path7361"
         cx="95.604256"
         cy="99.74926"
         r="2.4473958" />
      <path
         style="opacity:1;fill:#ffffff;fill-opacity:1;stroke:none;stroke-width:0.99999994;stroke-opacity:1"
         d="M 189.5 9.4140625 A 24.5 24.5 0 0 0 165 33.914062 A 24.5 24.5 0 0 0 165.5957 39.138672 A 21 21 0 0 0 147.5 59.914062 A 21 21 0 0 0 168.5 80.914062 A 21 21 0 0 0 189.5 59.914062 A 21 21 0 0 0 189.44531 58.412109 A 24.5 24.5 0 0 0 189.5 58.414062 A 24.5 24.5 0 0 0 214 33.914062 A 24.5 24.5 0 0 0 189.5 9.4140625 z "
         transform="matrix(0.26458333,0,0,0.26458333,59.951654,84.889191)"
         id="path7363" />
      <circle
         style="opacity:1;fill:#ffffff;fill-opacity:1;stroke:none;stroke-width:0.26458332;stroke-opacity:1"
         id="path7365"
         cx="103.60789"
         cy="87.512283"
         r="1.8520833" />
      <circle
         style="opacity:1;fill:#ffffff;fill-opacity:1;stroke:none;stroke-width:0.26458332;stroke-opacity:1"
         id="path7367"
         cx="94.413635"
         cy="90.62114"
         r="1.7859374" />
    </g>
  </g>
</svg>
